<svg xmlns="http://www.w3.org/2000/svg" xmlns:svg="http://www.w3.org/2000/svg" id="svg14875" width="523" height="336" data-name="Layer 1" version="1.1" viewBox="0 0 523 336"><ellipse id="ellipse14807" cx="73.714" cy="331.46" fill="#2f2e41" rx="10.903" ry="4.089"/><ellipse id="ellipse14809" cx="99.881" cy="330.915" fill="#2f2e41" rx="10.903" ry="4.089"/><ellipse id="ellipse14811" cx="469.744" cy="542.424" fill="#2f2e41" rx="21.534" ry="6.76" transform="translate(-546.62487 25.10005) rotate(-29.96257)"/><circle id="circle14813" cx="420.936" cy="555.946" r="43.067" fill="#2f2e41" transform="translate(-533.75772 600.39468) rotate(-80.78252)"/><rect id="rect14815" width="13.084" height="23.442" x="62.811" y="307.746" fill="#2f2e41"/><rect id="rect14817" width="13.084" height="23.442" x="88.978" y="307.746" fill="#2f2e41"/><circle id="circle14819" cx="83.527" cy="263.043" r="14.719" fill="#fff"/><circle id="circle14821" cx="83.527" cy="263.043" r="4.906" fill="#3f3d56"/><path id="path14823" fill="#e6e6e6" d="M379.15975,515.89493c-3.47748-15.57379,7.63867-31.31046,24.82861-35.14884s33.94421,5.67508,37.42169,21.24887-7.91491,21.31766-25.10486,25.156S382.63723,531.46875,379.15975,515.89493Z" transform="translate(-338.5 -282)" style="fill:#ff8080"/><ellipse id="ellipse14825" cx="372.428" cy="535.963" fill="#2f2e41" rx="6.76" ry="21.534" transform="translate(-609.92557 360.7865) rotate(-64.62574)"/><path id="path14827" fill="#fff" d="M399.78194,571.48328c0,4.21514,10.85327,12.53857,22.89654,12.53857s23.33515-11.867,23.33515-16.08209-11.29193.81775-23.33515.81775S399.78194,567.26813,399.78194,571.48328Z" transform="translate(-338.5 -282)"/><ellipse id="ellipse14829" cx="232.609" cy="331.46" fill="#2f2e41" rx="10.903" ry="4.089"/><ellipse id="ellipse14831" cx="206.441" cy="330.915" fill="#2f2e41" rx="10.903" ry="4.089"/><ellipse id="ellipse14833" cx="513.579" cy="542.424" fill="#2f2e41" rx="6.76" ry="21.534" transform="translate(-551.35011 434.45934) rotate(-60.03743)"/><circle id="circle14835" cx="223.886" cy="273.946" r="43.067" fill="#2f2e41"/><rect id="rect14837" width="13.084" height="23.442" x="230.428" y="307.746" fill="#2f2e41"/><rect id="rect14839" width="13.084" height="23.442" x="204.261" y="307.746" fill="#2f2e41"/><circle id="circle14841" cx="213.796" cy="263.043" r="14.719" fill="#fff"/><ellipse id="ellipse14843" cx="545.296" cy="543.043" fill="#3f3d56" rx="4.921" ry="4.886" transform="translate(-562.77667 262.29055) rotate(-44.97427)"/><path id="path14845" fill="#6c63ff" d="M567.01764,527.15094c-17.18994-3.83832-28.58234-9.58219-25.10486-25.156s20.23175-25.08725,37.42169-21.24887,28.3061,19.57505,24.82862,35.14884S584.20758,530.98926,567.01764,527.15094Z" transform="translate(-338.5 -282)" style="fill:#f55"/><ellipse id="ellipse14847" cx="601.895" cy="567.963" fill="#2f2e41" rx="6.76" ry="21.534" transform="translate(-464.12902 -108.45868) rotate(-14.87459)"/><path id="path14849" fill="#fff" d="M552.62933,568.75815c-7.90666,0-15.32008-5.03284-15.32008-.81775s7.41338,16.08209,15.32008,16.08209,15.03213-8.32343,15.03213-12.53857S560.536,568.75815,552.62933,568.75815Z" transform="translate(-338.5 -282)"/><path id="path14851" fill="#6c63ff" d="M496.97168,484.53906H493.147a12.93742,12.93742,0,0,1-12.92285-12.92285v-3.21094c0-7.95312,1.50684-14.6123,4.479-19.79248a104.11414,104.11414,0,0,1,12.542-16.85156,74.26915,74.26915,0,0,0,8.52783-10.27881,17.29,17.29,0,0,0,2.69336-9.5625c0-7.978-5.19776-11.85644-15.89063-11.85644a64.52587,64.52587,0,0,0-17.51513,2.6289,14.7451,14.7451,0,0,1-18.79248-14.17822v-6.5a14.46343,14.46343,0,0,1,8.53222-13.25635A78.08334,78.08334,0,0,1,496.61035,362.5c11.44434,0,21.77539,1.92236,30.707,5.71289,8.94776,3.79932,16.01709,9.15674,21.01123,15.92383a38.35194,38.35194,0,0,1,7.53614,23.24414c0,8.98-2.45166,16.80127-7.28663,23.24658-4.78222,6.37988-11.63769,13.36426-20.376,20.76026a145.20407,145.20407,0,0,0-13.06348,12.30664,22.71817,22.71817,0,0,0-5.43115,10.11132A12.888,12.888,0,0,1,496.97168,484.53906Z" transform="translate(-338.5 -282)" style="fill:#ff0800;fill-opacity:1"/><path id="path14853" fill="#6c63ff" d="M494.84521,545.31055h-.50439a23.95118,23.95118,0,0,1,0-47.90235h.50439a23.95118,23.95118,0,1,1,0,47.90235Z" transform="translate(-338.5 -282)" style="fill:#ff0800;fill-opacity:1"/><path id="path14855" fill="#ccc" d="M650.5,618h-311a1,1,0,0,1,0-2h311a1,1,0,0,1,0,2Z" transform="translate(-338.5 -282)"/><path id="path14857" fill="#ccc" d="M860.5,618h-166a1,1,0,0,1,0-2h166a1,1,0,0,1,0,2Z" transform="translate(-338.5 -282)"/></svg>