<svg xmlns="http://www.w3.org/2000/svg" xmlns:svg="http://www.w3.org/2000/svg" id="svg14875" width="313" height="255.509" data-name="Layer 1" version="1.1" viewBox="0 0 313 255.509"><ellipse id="ellipse14807" cx="73.714" cy="250.969" fill="#2f2e41" rx="10.903" ry="4.089"/><ellipse id="ellipse14809" cx="99.881" cy="250.424" fill="#2f2e41" rx="10.903" ry="4.089"/><ellipse id="ellipse14811" cx="23.838" cy="221.433" fill="#2f2e41" rx="21.534" ry="6.76" transform="rotate(-29.96257)"/><circle id="circle14813" cx="-177.752" cy="112.36" r="43.067" fill="#2f2e41" transform="rotate(-80.78252)"/><rect id="rect14815" width="13.084" height="23.442" x="62.811" y="227.255" fill="#2f2e41"/><rect id="rect14817" width="13.084" height="23.442" x="88.978" y="227.255" fill="#2f2e41"/><circle id="circle14819" cx="83.527" cy="182.552" r="14.719" fill="#fff"/><circle id="circle14821" cx="83.527" cy="182.552" r="4.906" fill="#3f3d56"/><path id="path14823" fill="#e6e6e6" d="m 40.65975,153.40357 c -3.47748,-15.57379 7.63867,-31.31046 24.82861,-35.14884 17.18994,-3.83838 33.94421,5.67508 37.42169,21.24887 3.47748,15.57379 -7.91491,21.31766 -25.10486,25.156 -17.18995,3.83834 -33.66796,4.31779 -37.14544,-11.25603 z" style="fill:#ff8080"/><ellipse id="ellipse14825" cx="-142.197" cy="104.993" fill="#2f2e41" rx="6.76" ry="21.534" transform="rotate(-64.62574)"/><path id="path14827" fill="#fff" d="m 61.28194,208.99192 c 0,4.21514 10.85327,12.53857 22.89654,12.53857 12.04327,0 23.33515,-11.867 23.33515,-16.08209 0,-4.21509 -11.29193,0.81775 -23.33515,0.81775 -12.04322,0 -22.89654,-1.48938 -22.89654,2.72577 z"/><ellipse id="ellipse14829" cx="232.609" cy="250.969" fill="#2f2e41" rx="10.903" ry="4.089"/><ellipse id="ellipse14831" cx="206.441" cy="250.424" fill="#2f2e41" rx="10.903" ry="4.089"/><ellipse id="ellipse14833" cx="-68.445" cy="241.545" fill="#2f2e41" rx="6.76" ry="21.534" transform="rotate(-60.03743)"/><circle id="circle14835" cx="223.886" cy="193.455" r="43.067" fill="#2f2e41"/><rect id="rect14837" width="13.084" height="23.442" x="230.428" y="227.255" fill="#2f2e41"/><rect id="rect14839" width="13.084" height="23.442" x="204.261" y="227.255" fill="#2f2e41"/><circle id="circle14841" cx="213.796" cy="182.552" r="14.719" fill="#fff"/><ellipse id="ellipse14843" cx="18.68" cy="273.888" fill="#3f3d56" rx="4.921" ry="4.886" transform="rotate(-44.97427)"/><path id="path14845" fill="#6c63ff" d="m 228.51764,164.65958 c -17.18994,-3.83832 -28.58234,-9.58219 -25.10486,-25.156 3.47748,-15.57381 20.23175,-25.08725 37.42169,-21.24887 17.18994,3.83838 28.3061,19.57505 24.82862,35.14884 -3.47748,15.57379 -19.95551,15.09435 -37.14545,11.25603 z" style="fill:#f55"/><ellipse id="ellipse14847" cx="201.823" cy="266.201" fill="#2f2e41" rx="6.76" ry="21.534" transform="rotate(-14.87459)"/><path id="path14849" fill="#fff" d="m 214.12933,206.26679 c -7.90666,0 -15.32008,-5.03284 -15.32008,-0.81775 0,4.21509 7.41338,16.08209 15.32008,16.08209 7.9067,0 15.03213,-8.32343 15.03213,-12.53857 0,-4.21514 -7.12546,-2.72577 -15.03213,-2.72577 z"/><path id="path14851" fill="#6c63ff" d="M 158.47168,122.0477 H 154.647 a 12.93742,12.93742 0 0 1 -12.92285,-12.92285 v -3.21094 c 0,-7.953123 1.50684,-14.612303 4.479,-19.792483 a 104.11414,104.11414 0 0 1 12.542,-16.85156 74.26915,74.26915 0 0 0 8.52783,-10.27881 17.29,17.29 0 0 0 2.69336,-9.5625 c 0,-7.978 -5.19776,-11.85644 -15.89063,-11.85644 a 64.52587,64.52587 0 0 0 -17.51513,2.6289 14.7451,14.7451 0 0 1 -18.79248,-14.17822 v -6.5 a 14.46343,14.46343 0 0 1 8.53222,-13.2563501 78.08334,78.08334 0 0 1 31.81003,-6.25780999 c 11.44434,0 21.77539,1.92235999 30.707,5.71288999 8.94776,3.79932 16.01709,9.1567401 21.01123,15.9238301 a 38.35194,38.35194 0 0 1 7.53614,23.24414 c 0,8.98 -2.45166,16.80127 -7.28663,23.24658 -4.78222,6.37988 -11.63769,13.36426 -20.376,20.76026 a 145.20407,145.20407 0 0 0 -13.06348,12.306643 22.71817,22.71817 0 0 0 -5.43115,10.11132 12.888,12.888 0 0 1 -12.73578,10.7334 z" style="fill:#ff0800;fill-opacity:1"/><path id="path14853" fill="#6c63ff" d="m 156.34521,182.81919 h -0.50439 a 23.95118,23.95118 0 0 1 0,-47.90235 h 0.50439 a 23.95118,23.95118 0 1 1 0,47.90235 z" style="fill:#ff0800;fill-opacity:1"/><path id="path14855" fill="#ccc" d="M 312,255.50864 H 1 a 1,1 0 0 1 0,-2 h 311 a 1,1 0 0 1 0,2 z"/></svg>