<svg xmlns="http://www.w3.org/2000/svg" xmlns:svg="http://www.w3.org/2000/svg" id="svg132" width="576.025" height="232.265" version="1.1" viewBox="0 0 576.025 232.265"><defs id="defs136"><clipPath id="clipPath148" clipPathUnits="userSpaceOnUse"><path id="path146" d="M 0,500 H 500 V 0 H 0 Z"/></clipPath><clipPath id="clipPath414" clipPathUnits="userSpaceOnUse"><path id="path412" d="M 0,500 H 500 V 0 H 0 Z"/></clipPath><clipPath id="clipPath500" clipPathUnits="userSpaceOnUse"><path id="path498" d="m 282.478,204.437 h 19.983 v -19.949 h -19.983 z"/></clipPath><clipPath id="clipPath524" clipPathUnits="userSpaceOnUse"><path id="path522" d="M 217.545,244.648 H 343.801 V 194.016 H 217.545 Z"/></clipPath><clipPath id="clipPath540" clipPathUnits="userSpaceOnUse"><path id="path538" d="M 165.055,291.336 H 266.629 V 245.071 H 165.055 Z"/></clipPath><clipPath id="clipPath616" clipPathUnits="userSpaceOnUse"><path id="path614" d="m 308.133,204.557 h 35.668 v -25.616 h -35.668 z"/></clipPath><clipPath id="clipPath632" clipPathUnits="userSpaceOnUse"><path id="path630" d="m 328.501,226.721 h 5.353 v -5.343 h -5.353 z"/></clipPath><clipPath id="clipPath648" clipPathUnits="userSpaceOnUse"><path id="path646" d="m 173.457,187.988 h 42.325 v -8.913 h -42.325 z"/></clipPath><clipPath id="clipPath664" clipPathUnits="userSpaceOnUse"><path id="path662" d="m 245.598,184.996 h 30.61 v -5.984 h -30.61 z"/></clipPath><clipPath id="clipPath684" clipPathUnits="userSpaceOnUse"><path id="path682" d="m 210.142,145.562 h 98.892 v -24.943 h -98.892 z"/></clipPath><clipPath id="clipPath728" clipPathUnits="userSpaceOnUse"><path id="path726" d="M 203.865,108.501 H 311.779 V 83.6468 H 203.865 Z"/></clipPath><clipPath id="clipPath744" clipPathUnits="userSpaceOnUse"><path id="path742" d="m 210.479,131.476 h 8.657 v -15.21 h -8.657 z"/></clipPath><clipPath id="clipPath764" clipPathUnits="userSpaceOnUse"><path id="path762" d="m 232.578,134.433 h 6.581 v -15.429 h -6.581 z"/></clipPath><clipPath id="clipPath788" clipPathUnits="userSpaceOnUse"><path id="path786" d="m 248.532,140.984 h 45.081 V 97.0445 h -45.081 z"/></clipPath><clipPath id="clipPath950" clipPathUnits="userSpaceOnUse"><path id="path948" d="m 420.147,222.016 h 8.89 v -8.89 h -8.89 z"/></clipPath><clipPath id="clipPath966" clipPathUnits="userSpaceOnUse"><path id="path964" d="m 431.715,222.016 h 8.89 v -8.89 h -8.89 z"/></clipPath><clipPath id="clipPath982" clipPathUnits="userSpaceOnUse"><path id="path980" d="m 443.283,222.016 h 8.891 v -8.89 h -8.891 z"/></clipPath><clipPath id="clipPath1088" clipPathUnits="userSpaceOnUse"><path id="path1086" d="m 126.229,202.902 h 11.444 V 191.45 h -11.444 z"/></clipPath><clipPath id="clipPath2403" clipPathUnits="userSpaceOnUse"><g id="g2407" transform="translate(-641.70532,-195.655)"><path id="path2405" d="m 369.43322,548.583 h 500 V 48.582998 h -500 z"/></g></clipPath><clipPath id="clipPath2409" clipPathUnits="userSpaceOnUse"><g id="g2413" transform="translate(-617.54272,-184.9274)"><path id="path2411" d="m 369.43322,548.583 h 500 V 48.582998 h -500 z"/></g></clipPath><clipPath id="clipPath2415" clipPathUnits="userSpaceOnUse"><g id="g2419" transform="translate(-618.87082,-195.487)"><path id="path2417" d="m 369.43322,548.583 h 500 V 48.582998 h -500 z"/></g></clipPath><clipPath id="clipPath2421" clipPathUnits="userSpaceOnUse"><g id="g2425" transform="translate(-611.25762,-239.2057)"><path id="path2423" d="m 369.43322,548.583 h 500 V 48.582998 h -500 z"/></g></clipPath><clipPath id="clipPath2427" clipPathUnits="userSpaceOnUse"><g id="g2431" transform="translate(-625.05392,-242.9294)"><path id="path2429" d="m 369.43322,548.583 h 500 V 48.582998 h -500 z"/></g></clipPath><clipPath id="clipPath2433" clipPathUnits="userSpaceOnUse"><g id="g2437" transform="translate(-640.72292,-242.821)"><path id="path2435" d="m 369.43322,548.583 h 500 V 48.582998 h -500 z"/></g></clipPath><clipPath id="clipPath2439" clipPathUnits="userSpaceOnUse"><g id="g2443" transform="translate(-646.36062,-228.7692)"><path id="path2441" d="m 369.43322,548.583 h 500 V 48.582998 h -500 z"/></g></clipPath><clipPath id="clipPath2445" clipPathUnits="userSpaceOnUse"><g id="g2449" transform="translate(-634.30302,-228.7282)"><path id="path2447" d="m 369.43322,548.583 h 500 V 48.582998 h -500 z"/></g></clipPath><clipPath id="clipPath2451" clipPathUnits="userSpaceOnUse"><g id="g2455" transform="translate(-632.68672,-210.1452)"><path id="path2453" d="m 369.43322,548.583 h 500 V 48.582998 h -500 z"/></g></clipPath><clipPath id="clipPath2457" clipPathUnits="userSpaceOnUse"><g id="g2461" transform="translate(-641.77172,-181.943)"><path id="path2459" d="m 369.43322,548.583 h 500 V 48.582998 h -500 z"/></g></clipPath><clipPath id="clipPath2463" clipPathUnits="userSpaceOnUse"><g id="g2467" transform="translate(-620.60032,-171.7009)"><path id="path2465" d="m 369.43322,548.583 h 500 V 48.582998 h -500 z"/></g></clipPath><clipPath id="clipPath2469" clipPathUnits="userSpaceOnUse"><g id="g2473" transform="translate(-630.12032,-212.5075)"><path id="path2471" d="m 369.43322,548.583 h 500 V 48.582998 h -500 z"/></g></clipPath><clipPath id="clipPath2475" clipPathUnits="userSpaceOnUse"><g id="g2479" transform="translate(-645.23752,-162.2302)"><path id="path2477" d="m 369.43322,548.583 h 500 V 48.582998 h -500 z"/></g></clipPath><clipPath id="clipPath2481" clipPathUnits="userSpaceOnUse"><g id="g2485" transform="translate(-630.20332,-158.2331)"><path id="path2483" d="m 369.43322,548.583 h 500 V 48.582998 h -500 z"/></g></clipPath><clipPath id="clipPath2487" clipPathUnits="userSpaceOnUse"><g id="g2491" transform="translate(-620.63652,-208.8522)"><path id="path2489" d="m 369.43322,548.583 h 500 V 48.582998 h -500 z"/></g></clipPath><clipPath id="clipPath2493" clipPathUnits="userSpaceOnUse"><g id="g2497" transform="translate(-646.85762,-229.4606)"><path id="path2495" d="m 369.43322,548.583 h 500 V 48.582998 h -500 z"/></g></clipPath><clipPath id="clipPath2499" clipPathUnits="userSpaceOnUse"><g id="g2503" transform="translate(-369.43322,-48.582998)"><path id="path2501" d="m 369.43322,548.583 h 500 V 48.582998 h -500 z"/></g></clipPath><clipPath id="clipPath2505" clipPathUnits="userSpaceOnUse"><g id="g2509" transform="translate(-675.47682,-166.9177)"><path id="path2507" d="m 369.43322,548.583 h 500 V 48.582998 h -500 z"/></g></clipPath><clipPath id="clipPath2511" clipPathUnits="userSpaceOnUse"><g id="g2515" transform="translate(-700.36942,-161.3845)"><path id="path2513" d="m 369.43322,548.583 h 500 V 48.582998 h -500 z"/></g></clipPath><clipPath id="clipPath2517" clipPathUnits="userSpaceOnUse"><g id="g2521" transform="translate(-369.43322,-48.582998)"><path id="path2519" d="m 369.43322,548.583 h 500 V 48.582998 h -500 z"/></g></clipPath><clipPath id="clipPath2523" clipPathUnits="userSpaceOnUse"><g id="g2527" transform="translate(-606.65892,-190.0192)"><path id="path2525" d="m 369.43322,548.583 h 500 V 48.582998 h -500 z"/></g></clipPath><clipPath id="clipPath2529" clipPathUnits="userSpaceOnUse"><g id="g2533" transform="translate(-369.43322,-48.582998)"><path id="path2531" d="m 369.43322,548.583 h 500 V 48.582998 h -500 z"/></g></clipPath><clipPath id="clipPath2535" clipPathUnits="userSpaceOnUse"><g id="g2539" transform="translate(-369.43322,-48.582998)"><path id="path2537" d="m 369.43322,548.583 h 500 V 48.582998 h -500 z"/></g></clipPath><clipPath id="clipPath2541" clipPathUnits="userSpaceOnUse"><g id="g2545" transform="translate(-580.06522,-179.5309)"><path id="path2543" d="m 369.43322,548.583 h 500 V 48.582998 h -500 z"/></g></clipPath><clipPath id="clipPath2547" clipPathUnits="userSpaceOnUse"><g id="g2551" transform="translate(-713.66722,-170.8102)"><path id="path2549" d="m 369.43322,548.583 h 500 V 48.582998 h -500 z"/></g></clipPath><clipPath id="clipPath2553" clipPathUnits="userSpaceOnUse"><g id="g2557" transform="translate(-588.88062,-271.3405)"><path id="path2555" d="m 369.43322,548.583 h 500 V 48.582998 h -500 z"/></g></clipPath><clipPath id="clipPath2559" clipPathUnits="userSpaceOnUse"><g id="g2563" transform="translate(-691.52172,-272.6247)"><path id="path2561" d="m 369.43322,548.583 h 500 V 48.582998 h -500 z"/></g></clipPath><clipPath id="clipPath2565" clipPathUnits="userSpaceOnUse"><g id="g2569" transform="translate(-664.04612,-285.3903)"><path id="path2567" d="m 369.43322,548.583 h 500 V 48.582998 h -500 z"/></g></clipPath><clipPath id="clipPath2571" clipPathUnits="userSpaceOnUse"><g id="g2575" transform="translate(-664.06472,-285.0085)"><path id="path2573" d="m 369.43322,548.583 h 500 V 48.582998 h -500 z"/></g></clipPath><clipPath id="clipPath2577" clipPathUnits="userSpaceOnUse"><g id="g2581" transform="translate(-736.57832,-210.7663)"><path id="path2579" d="m 369.43322,548.583 h 500 V 48.582998 h -500 z"/></g></clipPath><clipPath id="clipPath2583" clipPathUnits="userSpaceOnUse"><g id="g2587" transform="translate(-369.43322,-48.582998)"><path id="path2585" d="m 369.43322,548.583 h 500 V 48.582998 h -500 z"/></g></clipPath><clipPath id="clipPath2589" clipPathUnits="userSpaceOnUse"><g id="g2593" transform="translate(-580.80352,-178.6989)"><path id="path2591" d="m 369.43322,548.583 h 500 V 48.582998 h -500 z"/></g></clipPath><clipPath id="clipPath2595" clipPathUnits="userSpaceOnUse"><g id="g2599" transform="translate(-369.43322,-48.582998)"><path id="path2597" d="m 369.43322,548.583 h 500 V 48.582998 h -500 z"/></g></clipPath><clipPath id="clipPath2601" clipPathUnits="userSpaceOnUse"><g id="g2605" transform="translate(-369.43322,-48.582998)"><path id="path2603" d="m 369.43322,548.583 h 500 V 48.582998 h -500 z"/></g></clipPath><clipPath id="clipPath2607" clipPathUnits="userSpaceOnUse"><g id="g2611" transform="translate(-369.43322,-48.582998)"><path id="path2609" d="m 369.43322,548.583 h 500 V 48.582998 h -500 z"/></g></clipPath><clipPath id="clipPath2613" clipPathUnits="userSpaceOnUse"><g id="g2617" transform="translate(-369.43322,-48.582998)"><path id="path2615" d="m 369.43322,548.583 h 500 V 48.582998 h -500 z"/></g></clipPath><clipPath id="clipPath2619" clipPathUnits="userSpaceOnUse"><g id="g2623" transform="translate(-825.63012,-292.9821)"><path id="path2621" d="m 369.43322,548.583 h 500 V 48.582998 h -500 z"/></g></clipPath><clipPath id="clipPath2625" clipPathUnits="userSpaceOnUse"><g id="g2629" transform="translate(-662.14182,-293.6442)"><path id="path2627" d="m 369.43322,548.583 h 500 V 48.582998 h -500 z"/></g></clipPath><clipPath id="clipPath2631" clipPathUnits="userSpaceOnUse"><g id="g2635" transform="translate(-647.16822,-290.6022)"><path id="path2633" d="m 369.43322,548.583 h 500 V 48.582998 h -500 z"/></g></clipPath><clipPath id="clipPath2637" clipPathUnits="userSpaceOnUse"><g id="g2641" transform="translate(-633.87422,-286.4743)"><path id="path2639" d="m 369.43322,548.583 h 500 V 48.582998 h -500 z"/></g></clipPath><clipPath id="clipPath2643" clipPathUnits="userSpaceOnUse"><g id="g2647" transform="translate(-610.87672,-288.6559)"><path id="path2645" d="m 369.43322,548.583 h 500 V 48.582998 h -500 z"/></g></clipPath><clipPath id="clipPath2649" clipPathUnits="userSpaceOnUse"><g id="g2653" transform="translate(-597.64382,-292.5417)"><path id="path2651" d="m 369.43322,548.583 h 500 V 48.582998 h -500 z"/></g></clipPath><clipPath id="clipPath2655" clipPathUnits="userSpaceOnUse"><g id="g2659" transform="translate(-579.67112,-294.1686)"><path id="path2657" d="m 369.43322,548.583 h 500 V 48.582998 h -500 z"/></g></clipPath><clipPath id="clipPath2661" clipPathUnits="userSpaceOnUse"><g id="g2665" transform="translate(-661.39472,-300.839)"><path id="path2663" d="m 369.43322,548.583 h 500 V 48.582998 h -500 z"/></g></clipPath><clipPath id="clipPath2667" clipPathUnits="userSpaceOnUse"><g id="g2671" transform="translate(-583.03292,-280.9343)"><path id="path2669" d="m 369.43322,548.583 h 500 V 48.582998 h -500 z"/></g></clipPath><clipPath id="clipPath2673" clipPathUnits="userSpaceOnUse"><g id="g2677" transform="translate(-625.42022,-276.9274)"><path id="path2675" d="m 369.43322,548.583 h 500 V 48.582998 h -500 z"/></g></clipPath><clipPath id="clipPath2679" clipPathUnits="userSpaceOnUse"><g id="g2683" transform="translate(-618.43632,-304.423)"><path id="path2681" d="m 369.43322,548.583 h 500 V 48.582998 h -500 z"/></g></clipPath><clipPath id="clipPath2685" clipPathUnits="userSpaceOnUse"><g id="g2689" transform="translate(-657.93582,-314.4562)"><path id="path2687" d="m 369.43322,548.583 h 500 V 48.582998 h -500 z"/></g></clipPath><clipPath id="clipPath2691" clipPathUnits="userSpaceOnUse"><g id="g2695" transform="translate(-586.62862,-266.779)"><path id="path2693" d="m 369.43322,548.583 h 500 V 48.582998 h -500 z"/></g></clipPath><clipPath id="clipPath2697" clipPathUnits="userSpaceOnUse"><g id="g2701" transform="translate(-664.92012,-286.9606)"><path id="path2699" d="m 369.43322,548.583 h 500 V 48.582998 h -500 z"/></g></clipPath><clipPath id="clipPath2703" clipPathUnits="userSpaceOnUse"><g id="g2707" transform="translate(-663.71802,-287.4401)"><path id="path2705" d="m 369.43322,548.583 h 500 V 48.582998 h -500 z"/></g></clipPath><clipPath id="clipPath2709" clipPathUnits="userSpaceOnUse"><g id="g2713" transform="translate(-369.43322,-48.582998)"><path id="path2711" d="m 369.43322,548.583 h 500 V 48.582998 h -500 z"/></g></clipPath><clipPath id="clipPath2715" clipPathUnits="userSpaceOnUse"><g id="g2719" transform="translate(-369.43322,-48.582998)"><path id="path2717" d="m 369.43322,548.583 h 500 V 48.582998 h -500 z"/></g></clipPath><clipPath id="clipPath2721" clipPathUnits="userSpaceOnUse"><g id="g2725" transform="translate(-561.54762,-300.821)"><path id="path2723" d="m 369.43322,548.583 h 500 V 48.582998 h -500 z"/></g></clipPath><clipPath id="clipPath2727" clipPathUnits="userSpaceOnUse"><g id="g2731" transform="translate(-702.90452,-274.0934)"><path id="path2729" d="m 369.43322,548.583 h 500 V 48.582998 h -500 z"/></g></clipPath><clipPath id="clipPath2733" clipPathUnits="userSpaceOnUse"><g id="g2737" transform="translate(-369.43322,-48.582998)"><path id="path2735" d="m 369.43322,548.583 h 500 V 48.582998 h -500 z"/></g></clipPath><clipPath id="clipPath2739" clipPathUnits="userSpaceOnUse"><g id="g2743" transform="translate(-659.42212,-252.779)"><path id="path2741" d="m 369.43322,548.583 h 500 V 48.582998 h -500 z"/></g></clipPath><clipPath id="clipPath2745" clipPathUnits="userSpaceOnUse"><g id="g2749" transform="translate(-683.51582,-294.5475)"><path id="path2747" d="m 369.43322,548.583 h 500 V 48.582998 h -500 z"/></g></clipPath><clipPath id="clipPath2751" clipPathUnits="userSpaceOnUse"><g id="g2755" transform="translate(-624.15362,-331.0163)"><path id="path2753" d="m 369.43322,548.583 h 500 V 48.582998 h -500 z"/></g></clipPath><clipPath id="clipPath2757" clipPathUnits="userSpaceOnUse"><g id="g2761" transform="translate(-636.51002,-233.1833)"><path id="path2759" d="m 369.43322,548.583 h 500 V 48.582998 h -500 z"/></g></clipPath><clipPath id="clipPath2763" clipPathUnits="userSpaceOnUse"><g id="g2767" transform="translate(-557.28732,-235.779)"><path id="path2765" d="m 369.43322,548.583 h 500 V 48.582998 h -500 z"/></g></clipPath><clipPath id="clipPath2769" clipPathUnits="userSpaceOnUse"><g id="g2773" transform="translate(-693.79222,-241.7419)"><path id="path2771" d="m 369.43322,548.583 h 500 V 48.582998 h -500 z"/></g></clipPath><clipPath id="clipPath2775" clipPathUnits="userSpaceOnUse"><g id="g2779" transform="translate(-701.81472,-270.2087)"><path id="path2777" d="m 369.43322,548.583 h 500 V 48.582998 h -500 z"/></g></clipPath><clipPath id="clipPath2781" clipPathUnits="userSpaceOnUse"><g id="g2785" transform="translate(-712.72292,-291.5944)"><path id="path2783" d="m 369.43322,548.583 h 500 V 48.582998 h -500 z"/></g></clipPath><clipPath id="clipPath2787" clipPathUnits="userSpaceOnUse"><g id="g2791" transform="translate(-684.90942,-299.5471)"><path id="path2789" d="m 369.43322,548.583 h 500 V 48.582998 h -500 z"/></g></clipPath><clipPath id="clipPath5896" clipPathUnits="userSpaceOnUse"><g id="g5900" transform="translate(-50.7628,-155.9099)"><path id="path5898" d="M 0,500 H 500 V 0 H 0 Z"/></g></clipPath><clipPath id="clipPath5902" clipPathUnits="userSpaceOnUse"><g id="g5906"><path id="path5904" d="M 0,500 H 500 V 0 H 0 Z"/></g></clipPath><clipPath id="clipPath5908" clipPathUnits="userSpaceOnUse"><g id="g5912" transform="translate(-319.943,-72.1716)"><path id="path5910" d="M 0,500 H 500 V 0 H 0 Z"/></g></clipPath><clipPath id="clipPath7393" clipPathUnits="userSpaceOnUse"><g id="g7397"><path id="path7395" d="M 0,500 H 500 V 0 H 0 Z"/></g></clipPath><clipPath id="clipPath7399" clipPathUnits="userSpaceOnUse"><g id="g7403"><path id="path7401" d="M 0,500 H 500 V 0 H 0 Z"/></g></clipPath><clipPath id="clipPath7405" clipPathUnits="userSpaceOnUse"><g id="g7409"><path id="path7407" d="M 0,500 H 500 V 0 H 0 Z"/></g></clipPath><clipPath id="clipPath7411" clipPathUnits="userSpaceOnUse"><g id="g7415"><path id="path7413" d="M 0,500 H 500 V 0 H 0 Z"/></g></clipPath><clipPath id="clipPath7417" clipPathUnits="userSpaceOnUse"><g id="g7421" transform="translate(-100.8659,-209.6452)"><path id="path7419" d="M 0,500 H 500 V 0 H 0 Z"/></g></clipPath><clipPath id="clipPath7423" clipPathUnits="userSpaceOnUse"><g id="g7427" transform="translate(-100.8659,-215.3268)"><path id="path7425" d="M 0,500 H 500 V 0 H 0 Z"/></g></clipPath><clipPath id="clipPath7429" clipPathUnits="userSpaceOnUse"><g id="g7433" transform="translate(-100.8659,-221.0085)"><path id="path7431" d="M 0,500 H 500 V 0 H 0 Z"/></g></clipPath><clipPath id="clipPath7435" clipPathUnits="userSpaceOnUse"><g id="g7439" transform="translate(-100.8659,-226.6901)"><path id="path7437" d="M 0,500 H 500 V 0 H 0 Z"/></g></clipPath><clipPath id="clipPath7441" clipPathUnits="userSpaceOnUse"><g id="g7445" transform="translate(-100.8659,-232.3718)"><path id="path7443" d="M 0,500 H 500 V 0 H 0 Z"/></g></clipPath><clipPath id="clipPath7447" clipPathUnits="userSpaceOnUse"><g id="g7451" transform="translate(-100.8659,-238.0544)"><path id="path7449" d="M 0,500 H 500 V 0 H 0 Z"/></g></clipPath><clipPath id="clipPath7453" clipPathUnits="userSpaceOnUse"><g id="g7457" transform="translate(-100.8659,-243.736)"><path id="path7455" d="M 0,500 H 500 V 0 H 0 Z"/></g></clipPath><clipPath id="clipPath7459" clipPathUnits="userSpaceOnUse"><g id="g7463" transform="translate(-100.8659,-249.4172)"><path id="path7461" d="M 0,500 H 500 V 0 H 0 Z"/></g></clipPath><clipPath id="clipPath7465" clipPathUnits="userSpaceOnUse"><g id="g7469" transform="translate(-100.8659,-255.0993)"><path id="path7467" d="M 0,500 H 500 V 0 H 0 Z"/></g></clipPath><clipPath id="clipPath7471" clipPathUnits="userSpaceOnUse"><g id="g7475" transform="translate(-100.8659,-260.7809)"><path id="path7473" d="M 0,500 H 500 V 0 H 0 Z"/></g></clipPath><clipPath id="clipPath7477" clipPathUnits="userSpaceOnUse"><g id="g7481" transform="translate(-100.8659,-266.4626)"><path id="path7479" d="M 0,500 H 500 V 0 H 0 Z"/></g></clipPath><clipPath id="clipPath7483" clipPathUnits="userSpaceOnUse"><g id="g7487" transform="translate(-100.8659,-272.1442)"><path id="path7485" d="M 0,500 H 500 V 0 H 0 Z"/></g></clipPath><clipPath id="clipPath7489" clipPathUnits="userSpaceOnUse"><g id="g7493" transform="translate(-100.0836,-277.0441)"><path id="path7491" d="M 0,500 H 500 V 0 H 0 Z"/></g></clipPath><clipPath id="clipPath7495" clipPathUnits="userSpaceOnUse"><g id="g7499" transform="translate(-94.402,-277.0441)"><path id="path7497" d="M 0,500 H 500 V 0 H 0 Z"/></g></clipPath><clipPath id="clipPath7501" clipPathUnits="userSpaceOnUse"><g id="g7505" transform="translate(-88.7199,-277.0441)"><path id="path7503" d="M 0,500 H 500 V 0 H 0 Z"/></g></clipPath><clipPath id="clipPath7507" clipPathUnits="userSpaceOnUse"><g id="g7511" transform="translate(-83.0382,-277.0441)"><path id="path7509" d="M 0,500 H 500 V 0 H 0 Z"/></g></clipPath><clipPath id="clipPath7513" clipPathUnits="userSpaceOnUse"><g id="g7517" transform="translate(-77.3566,-277.0441)"><path id="path7515" d="M 0,500 H 500 V 0 H 0 Z"/></g></clipPath><clipPath id="clipPath7519" clipPathUnits="userSpaceOnUse"><g id="g7523" transform="translate(-71.6749,-277.0441)"><path id="path7521" d="M 0,500 H 500 V 0 H 0 Z"/></g></clipPath><clipPath id="clipPath7525" clipPathUnits="userSpaceOnUse"><g id="g7529" transform="translate(-65.9933,-277.0441)"><path id="path7527" d="M 0,500 H 500 V 0 H 0 Z"/></g></clipPath><clipPath id="clipPath7531" clipPathUnits="userSpaceOnUse"><g id="g7535" transform="translate(-60.3112,-277.0441)"><path id="path7533" d="M 0,500 H 500 V 0 H 0 Z"/></g></clipPath><clipPath id="clipPath7537" clipPathUnits="userSpaceOnUse"><g id="g7541" transform="translate(-54.6295,-277.0441)"><path id="path7539" d="M 0,500 H 500 V 0 H 0 Z"/></g></clipPath><clipPath id="clipPath7543" clipPathUnits="userSpaceOnUse"><g id="g7547" transform="translate(-48.9479,-277.0441)"><path id="path7545" d="M 0,500 H 500 V 0 H 0 Z"/></g></clipPath><clipPath id="clipPath7549" clipPathUnits="userSpaceOnUse"><g id="g7553" transform="translate(-43.2663,-277.0441)"><path id="path7551" d="M 0,500 H 500 V 0 H 0 Z"/></g></clipPath><clipPath id="clipPath7555" clipPathUnits="userSpaceOnUse"><g id="g7559" transform="translate(-37.5846,-277.0441)"><path id="path7557" d="M 0,500 H 500 V 0 H 0 Z"/></g></clipPath><clipPath id="clipPath7561" clipPathUnits="userSpaceOnUse"><g id="g7565" transform="translate(-31.9025,-277.0441)"><path id="path7563" d="M 0,500 H 500 V 0 H 0 Z"/></g></clipPath><clipPath id="clipPath7567" clipPathUnits="userSpaceOnUse"><g id="g7571" transform="translate(-31.4772,-271.7878)"><path id="path7569" d="M 0,500 H 500 V 0 H 0 Z"/></g></clipPath><clipPath id="clipPath7573" clipPathUnits="userSpaceOnUse"><g id="g7577" transform="translate(-31.4772,-266.1061)"><path id="path7575" d="M 0,500 H 500 V 0 H 0 Z"/></g></clipPath><clipPath id="clipPath7579" clipPathUnits="userSpaceOnUse"><g id="g7583" transform="translate(-31.4772,-260.424)"><path id="path7581" d="M 0,500 H 500 V 0 H 0 Z"/></g></clipPath><clipPath id="clipPath7585" clipPathUnits="userSpaceOnUse"><g id="g7589" transform="translate(-31.4772,-254.7424)"><path id="path7587" d="M 0,500 H 500 V 0 H 0 Z"/></g></clipPath><clipPath id="clipPath7591" clipPathUnits="userSpaceOnUse"><g id="g7595" transform="translate(-31.4772,-249.0607)"><path id="path7593" d="M 0,500 H 500 V 0 H 0 Z"/></g></clipPath><clipPath id="clipPath7597" clipPathUnits="userSpaceOnUse"><g id="g7601" transform="translate(-31.4772,-243.3786)"><path id="path7599" d="M 0,500 H 500 V 0 H 0 Z"/></g></clipPath><clipPath id="clipPath7603" clipPathUnits="userSpaceOnUse"><g id="g7607" transform="translate(-31.4772,-237.697)"><path id="path7605" d="M 0,500 H 500 V 0 H 0 Z"/></g></clipPath><clipPath id="clipPath7609" clipPathUnits="userSpaceOnUse"><g id="g7613" transform="translate(-31.4772,-232.0153)"><path id="path7611" d="M 0,500 H 500 V 0 H 0 Z"/></g></clipPath><clipPath id="clipPath7615" clipPathUnits="userSpaceOnUse"><g id="g7619" transform="translate(-31.4772,-226.3337)"><path id="path7617" d="M 0,500 H 500 V 0 H 0 Z"/></g></clipPath><clipPath id="clipPath7621" clipPathUnits="userSpaceOnUse"><g id="g7625" transform="translate(-31.4772,-220.652)"><path id="path7623" d="M 0,500 H 500 V 0 H 0 Z"/></g></clipPath><clipPath id="clipPath7627" clipPathUnits="userSpaceOnUse"><g id="g7631" transform="translate(-31.4772,-214.9704)"><path id="path7629" d="M 0,500 H 500 V 0 H 0 Z"/></g></clipPath><clipPath id="clipPath7633" clipPathUnits="userSpaceOnUse"><g id="g7637" transform="translate(-31.4772,-209.2888)"><path id="path7635" d="M 0,500 H 500 V 0 H 0 Z"/></g></clipPath><clipPath id="clipPath7639" clipPathUnits="userSpaceOnUse"><g id="g7643" transform="translate(-35.526,-207.655)"><path id="path7641" d="M 0,500 H 500 V 0 H 0 Z"/></g></clipPath><clipPath id="clipPath7645" clipPathUnits="userSpaceOnUse"><g id="g7649" transform="translate(-41.2077,-207.655)"><path id="path7647" d="M 0,500 H 500 V 0 H 0 Z"/></g></clipPath><clipPath id="clipPath7651" clipPathUnits="userSpaceOnUse"><g id="g7655" transform="translate(-46.8893,-207.655)"><path id="path7653" d="M 0,500 H 500 V 0 H 0 Z"/></g></clipPath><clipPath id="clipPath7657" clipPathUnits="userSpaceOnUse"><g id="g7661" transform="translate(-52.5709,-207.655)"><path id="path7659" d="M 0,500 H 500 V 0 H 0 Z"/></g></clipPath><clipPath id="clipPath7663" clipPathUnits="userSpaceOnUse"><g id="g7667" transform="translate(-58.2526,-207.655)"><path id="path7665" d="M 0,500 H 500 V 0 H 0 Z"/></g></clipPath><clipPath id="clipPath7669" clipPathUnits="userSpaceOnUse"><g id="g7673" transform="translate(-63.9347,-207.655)"><path id="path7671" d="M 0,500 H 500 V 0 H 0 Z"/></g></clipPath><clipPath id="clipPath7675" clipPathUnits="userSpaceOnUse"><g id="g7679" transform="translate(-69.6163,-207.655)"><path id="path7677" d="M 0,500 H 500 V 0 H 0 Z"/></g></clipPath><clipPath id="clipPath7681" clipPathUnits="userSpaceOnUse"><g id="g7685" transform="translate(-75.298,-207.655)"><path id="path7683" d="M 0,500 H 500 V 0 H 0 Z"/></g></clipPath><clipPath id="clipPath7687" clipPathUnits="userSpaceOnUse"><g id="g7691" transform="translate(-80.9796,-207.655)"><path id="path7689" d="M 0,500 H 500 V 0 H 0 Z"/></g></clipPath><clipPath id="clipPath7693" clipPathUnits="userSpaceOnUse"><g id="g7697" transform="translate(-86.6613,-207.655)"><path id="path7695" d="M 0,500 H 500 V 0 H 0 Z"/></g></clipPath><clipPath id="clipPath7699" clipPathUnits="userSpaceOnUse"><g id="g7703" transform="translate(-92.3434,-207.655)"><path id="path7701" d="M 0,500 H 500 V 0 H 0 Z"/></g></clipPath><clipPath id="clipPath7705" clipPathUnits="userSpaceOnUse"><g id="g7709" transform="translate(-98.025,-207.655)"><path id="path7707" d="M 0,500 H 500 V 0 H 0 Z"/></g></clipPath><clipPath id="clipPath7711" clipPathUnits="userSpaceOnUse"><g id="g7715" transform="translate(-369.399,-187.5466)"><path id="path7713" d="M 0,500 H 500 V 0 H 0 Z"/></g></clipPath><clipPath id="clipPath7717" clipPathUnits="userSpaceOnUse"><g id="g7721" transform="translate(-374.0543,-187.5466)"><path id="path7719" d="M 0,500 H 500 V 0 H 0 Z"/></g></clipPath><clipPath id="clipPath7723" clipPathUnits="userSpaceOnUse"><g id="g7727" transform="translate(-130.1413,-187.1843)"><path id="path7725" d="M 0,500 H 500 V 0 H 0 Z"/></g></clipPath><clipPath id="clipPath7729" clipPathUnits="userSpaceOnUse"><g id="g7733"><path id="path7731" d="M 0,500 H 500 V 0 H 0 Z"/></g></clipPath><clipPath id="clipPath7735" clipPathUnits="userSpaceOnUse"><g id="g7739" transform="translate(-132.3112,-203.4841)"><path id="path7737" d="M 0,500 H 500 V 0 H 0 Z"/></g></clipPath><clipPath id="clipPath7741" clipPathUnits="userSpaceOnUse"><g id="g7745" transform="translate(-143.8956,-194.6628)"><path id="path7743" d="M 0,500 H 500 V 0 H 0 Z"/></g></clipPath><clipPath id="clipPath7747" clipPathUnits="userSpaceOnUse"><g id="g7751" transform="translate(-144.3263,-194.6628)"><path id="path7749" d="M 0,500 H 500 V 0 H 0 Z"/></g></clipPath><clipPath id="clipPath7753" clipPathUnits="userSpaceOnUse"><g id="g7757" transform="translate(-144.7135,-189.1569)"><path id="path7755" d="M 0,500 H 500 V 0 H 0 Z"/></g></clipPath><clipPath id="clipPath7759" clipPathUnits="userSpaceOnUse"><g id="g7763"><path id="path7761" d="M 0,500 H 500 V 0 H 0 Z"/></g></clipPath><clipPath id="clipPath7765" clipPathUnits="userSpaceOnUse"><g id="g7769" transform="translate(-135.9962,-246.3376)"><path id="path7767" d="M 0,500 H 500 V 0 H 0 Z"/></g></clipPath><clipPath id="clipPath7771" clipPathUnits="userSpaceOnUse"><g id="g7775" transform="translate(-137.964,-248.9069)"><path id="path7773" d="M 0,500 H 500 V 0 H 0 Z"/></g></clipPath><clipPath id="clipPath7777" clipPathUnits="userSpaceOnUse"><g id="g7781" transform="translate(-148.9811,-235.5456)"><path id="path7779" d="M 0,500 H 500 V 0 H 0 Z"/></g></clipPath><clipPath id="clipPath7783" clipPathUnits="userSpaceOnUse"><g id="g7787" transform="translate(-169.2379,-248.5016)"><path id="path7785" d="M 0,500 H 500 V 0 H 0 Z"/></g></clipPath><clipPath id="clipPath7789" clipPathUnits="userSpaceOnUse"><g id="g7793" transform="translate(-176.4118,-269.6017)"><path id="path7791" d="M 0,500 H 500 V 0 H 0 Z"/></g></clipPath><clipPath id="clipPath7795" clipPathUnits="userSpaceOnUse"><g id="g7799" transform="translate(-137.964,-263.0583)"><path id="path7797" d="M 0,500 H 500 V 0 H 0 Z"/></g></clipPath><clipPath id="clipPath7801" clipPathUnits="userSpaceOnUse"><g id="g7805" transform="translate(-163.5084,-301.6457)"><path id="path7803" d="M 0,500 H 500 V 0 H 0 Z"/></g></clipPath><clipPath id="clipPath7807" clipPathUnits="userSpaceOnUse"><g id="g7811" transform="translate(-139.5744,-301.6457)"><path id="path7809" d="M 0,500 H 500 V 0 H 0 Z"/></g></clipPath><clipPath id="clipPath7813" clipPathUnits="userSpaceOnUse"><g id="g7817"><path id="path7815" d="M 0,500 H 500 V 0 H 0 Z"/></g></clipPath><clipPath id="clipPath7819" clipPathUnits="userSpaceOnUse"><g id="g7823" transform="translate(-181.6461,-224.6501)"><path id="path7821" d="M 0,500 H 500 V 0 H 0 Z"/></g></clipPath><clipPath id="clipPath7825" clipPathUnits="userSpaceOnUse"><g id="g7829"><path id="path7827" d="M 0,500 H 500 V 0 H 0 Z"/></g></clipPath><clipPath id="clipPath7831" clipPathUnits="userSpaceOnUse"><g id="g7835" transform="translate(-214.3478,-340.4103)"><path id="path7833" d="M 0,500 H 500 V 0 H 0 Z"/></g></clipPath><clipPath id="clipPath7837" clipPathUnits="userSpaceOnUse"><g id="g7841"><path id="path7839" d="M 0,500 H 500 V 0 H 0 Z"/></g></clipPath><clipPath id="clipPath7843" clipPathUnits="userSpaceOnUse"><g id="g7847"><path id="path7845" d="M 0,500 H 500 V 0 H 0 Z"/></g></clipPath><clipPath id="clipPath7849" clipPathUnits="userSpaceOnUse"><g id="g7853"><path id="path7851" d="M 0,500 H 500 V 0 H 0 Z"/></g></clipPath><clipPath id="clipPath7855" clipPathUnits="userSpaceOnUse"><g id="g7859"><path id="path7857" d="M 0,500 H 500 V 0 H 0 Z"/></g></clipPath><clipPath id="clipPath7861" clipPathUnits="userSpaceOnUse"><g id="g7865"><path id="path7863" d="M 0,500 H 500 V 0 H 0 Z"/></g></clipPath><clipPath id="clipPath7867" clipPathUnits="userSpaceOnUse"><g id="g7871" transform="translate(-121.525,-411.8859)"><path id="path7869" d="M 0,500 H 500 V 0 H 0 Z"/></g></clipPath><clipPath id="clipPath7873" clipPathUnits="userSpaceOnUse"><g id="g7877" transform="translate(-116.2008,-411.8859)"><path id="path7875" d="M 0,500 H 500 V 0 H 0 Z"/></g></clipPath><clipPath id="clipPath7879" clipPathUnits="userSpaceOnUse"><g id="g7883" transform="translate(-110.8766,-411.8859)"><path id="path7881" d="M 0,500 H 500 V 0 H 0 Z"/></g></clipPath><clipPath id="clipPath7885" clipPathUnits="userSpaceOnUse"><g id="g7889"><path id="path7887" d="M 0,500 H 500 V 0 H 0 Z"/></g></clipPath><clipPath id="clipPath7891" clipPathUnits="userSpaceOnUse"><g id="g7895" transform="translate(-229.8654,-330.0529)"><path id="path7893" d="M 0,500 H 500 V 0 H 0 Z"/></g></clipPath><clipPath id="clipPath7897" clipPathUnits="userSpaceOnUse"><g id="g7901"><path id="path7899" d="M 0,500 H 500 V 0 H 0 Z"/></g></clipPath><clipPath id="clipPath7903" clipPathUnits="userSpaceOnUse"><g id="g7907"><path id="path7905" d="M 0,500 H 500 V 0 H 0 Z"/></g></clipPath><clipPath id="clipPath7909" clipPathUnits="userSpaceOnUse"><g id="g7913"><path id="path7911" d="M 0,500 H 500 V 0 H 0 Z"/></g></clipPath><clipPath id="clipPath7915" clipPathUnits="userSpaceOnUse"><g id="g7919"><path id="path7917" d="M 0,500 H 500 V 0 H 0 Z"/></g></clipPath><clipPath id="clipPath7921" clipPathUnits="userSpaceOnUse"><g id="g7925"><path id="path7923" d="M 0,500 H 500 V 0 H 0 Z"/></g></clipPath><clipPath id="clipPath7927" clipPathUnits="userSpaceOnUse"><g id="g7931"><path id="path7929" d="M 0,500 H 500 V 0 H 0 Z"/></g></clipPath><clipPath id="clipPath7933" clipPathUnits="userSpaceOnUse"><g id="g7937"><path id="path7935" d="M 0,500 H 500 V 0 H 0 Z"/></g></clipPath><clipPath id="clipPath7939" clipPathUnits="userSpaceOnUse"><g id="g7943"><path id="path7941" d="M 0,500 H 500 V 0 H 0 Z"/></g></clipPath><clipPath id="clipPath7945" clipPathUnits="userSpaceOnUse"><g id="g7949"><path id="path7947" d="M 0,500 H 500 V 0 H 0 Z"/></g></clipPath><clipPath id="clipPath7951" clipPathUnits="userSpaceOnUse"><g id="g7955"><path id="path7953" d="M 0,500 H 500 V 0 H 0 Z"/></g></clipPath><clipPath id="clipPath7957" clipPathUnits="userSpaceOnUse"><g id="g7961" transform="translate(-373.8756,-213.1257)"><path id="path7959" d="M 0,500 H 500 V 0 H 0 Z"/></g></clipPath><clipPath id="clipPath7963" clipPathUnits="userSpaceOnUse"><g id="g7967" transform="translate(-382.7653,-222.0153)"><path id="path7965" d="M 0,500 H 500 V 0 H 0 Z"/></g></clipPath><clipPath id="clipPath7969" clipPathUnits="userSpaceOnUse"><g id="g7973" transform="translate(-382.7653,-213.1257)"><path id="path7971" d="M 0,500 H 500 V 0 H 0 Z"/></g></clipPath><clipPath id="clipPath7975" clipPathUnits="userSpaceOnUse"><g id="g7979"><path id="path7977" d="M 0,500 H 500 V 0 H 0 Z"/></g></clipPath><clipPath id="clipPath7981" clipPathUnits="userSpaceOnUse"><g id="g7985"><path id="path7983" d="M 0,500 H 500 V 0 H 0 Z"/></g></clipPath><clipPath id="clipPath7987" clipPathUnits="userSpaceOnUse"><g id="g7991"><path id="path7989" d="M 0,500 H 500 V 0 H 0 Z"/></g></clipPath><clipPath id="clipPath7993" clipPathUnits="userSpaceOnUse"><g id="g7997"><path id="path7995" d="M 0,500 H 500 V 0 H 0 Z"/></g></clipPath><clipPath id="clipPath7999" clipPathUnits="userSpaceOnUse"><g id="g8003"><path id="path8001" d="M 0,500 H 500 V 0 H 0 Z"/></g></clipPath><clipPath id="clipPath8005" clipPathUnits="userSpaceOnUse"><g id="g8009"><path id="path8007" d="M 0,500 H 500 V 0 H 0 Z"/></g></clipPath><clipPath id="clipPath8011" clipPathUnits="userSpaceOnUse"><g id="g8015"><path id="path8013" d="M 0,500 H 500 V 0 H 0 Z"/></g></clipPath><clipPath id="clipPath8017" clipPathUnits="userSpaceOnUse"><g id="g8021"><path id="path8019" d="M 0,500 H 500 V 0 H 0 Z"/></g></clipPath><clipPath id="clipPath8023" clipPathUnits="userSpaceOnUse"><g id="g8027" transform="translate(-414.8932,-321.3801)"><path id="path8025" d="M 0,500 H 500 V 0 H 0 Z"/></g></clipPath><clipPath id="clipPath8029" clipPathUnits="userSpaceOnUse"><g id="g8033"><path id="path8031" d="M 0,500 H 500 V 0 H 0 Z"/></g></clipPath><clipPath id="clipPath8035" clipPathUnits="userSpaceOnUse"><g id="g8039" transform="translate(-409.3248,-326.9489)"><path id="path8037" d="M 0,500 H 500 V 0 H 0 Z"/></g></clipPath><clipPath id="clipPath8041" clipPathUnits="userSpaceOnUse"><g id="g8045"><path id="path8043" d="M 0,500 H 500 V 0 H 0 Z"/></g></clipPath><clipPath id="clipPath8047" clipPathUnits="userSpaceOnUse"><g id="g8051" transform="translate(-394.444,-321.3801)"><path id="path8049" d="M 0,500 H 500 V 0 H 0 Z"/></g></clipPath><clipPath id="clipPath8053" clipPathUnits="userSpaceOnUse"><g id="g8057"><path id="path8055" d="M 0,500 H 500 V 0 H 0 Z"/></g></clipPath><clipPath id="clipPath8059" clipPathUnits="userSpaceOnUse"><g id="g8063"><path id="path8061" d="M 0,500 H 500 V 0 H 0 Z"/></g></clipPath><clipPath id="clipPath8065" clipPathUnits="userSpaceOnUse"><g id="g8069"><path id="path8067" d="M 0,500 H 500 V 0 H 0 Z"/></g></clipPath><clipPath id="clipPath8071" clipPathUnits="userSpaceOnUse"><g id="g8075"><path id="path8073" d="M 0,500 H 500 V 0 H 0 Z"/></g></clipPath><clipPath id="clipPath8077" clipPathUnits="userSpaceOnUse"><g id="g8081"><path id="path8079" d="M 0,500 H 500 V 0 H 0 Z"/></g></clipPath><clipPath id="clipPath8083" clipPathUnits="userSpaceOnUse"><g id="g8087" transform="translate(-440.2662,-313.4929)"><path id="path8085" d="M 0,500 H 500 V 0 H 0 Z"/></g></clipPath><clipPath id="clipPath8089" clipPathUnits="userSpaceOnUse"><g id="g8093"><path id="path8091" d="M 0,500 H 500 V 0 H 0 Z"/></g></clipPath><clipPath id="clipPath8095" clipPathUnits="userSpaceOnUse"><g id="g8099" transform="translate(-421.2252,-302.8581)"><path id="path8097" d="M 0,500 H 500 V 0 H 0 Z"/></g></clipPath></defs><g id="g140" transform="matrix(1.3333333,0,0,-1.3333333,-38.543999,461.47108)"><path d="m 160.3654,173.1774 -0.719,123.268 h 189.41 v -124.541 z" style="fill:#375a64;fill-opacity:1;fill-rule:nonzero;stroke:none" id="path448"/><g id="g458" clip-path="url(#clipPath2787)" transform="translate(316.48835,250.9641)"><path d="M 0,0 C 0.455,0.361 0.984,0.597 1.54,0.737 1.613,0.759 1.68,0.798 1.755,0.816 L 1.674,0.778 C 3.468,1.17 5.534,0.47 6.531,-1.101 7.865,-3.203 6.976,-6.375 4.742,-7.475 2.51,-8.574 -0.55,-7.341 -1.394,-5 c -0.677,1.879 0.213,4.1 1.839,5.207 z m -116.025,-54.32 c 7.33,0.381 14.787,-1.345 22.109,-2.187 l -3.929,1.042 c -0.613,6.96 2.055,14.139 7.066,19.009 5.01,4.871 12.263,7.333 19.204,6.522 5.21,-0.608 10.334,-2.95 15.507,-2.079 9.484,1.596 14.359,12.886 23.362,16.267 11.511,4.325 24.918,-5.781 36.269,-1.051 4.598,1.916 7.941,5.974 12.211,8.539 3.659,2.197 8.956,2.834 12.039,0.305 v 26.49 C 24.778,12.67 17.313,9.821 10.588,10.378 3.45,10.97 -3.044,14.543 -9.243,18.106 c -6.198,3.563 -12.577,7.273 -19.681,8.185 -10.102,1.297 -19.9,-3.216 -29.7,-5.977 -8.848,-2.493 -18.379,-3.57 -27.209,-1.015 -0.293,0.085 -0.583,0.197 -0.875,0.297 -1.109,-1.039 -2.308,-1.952 -3.684,-2.619 -7.516,-3.643 -17.545,1.241 -24.409,-3.518 -4.112,-2.851 -5.542,-8.195 -8.561,-12.185 -5.57,-7.362 -18.989,-9.487 -26.702,-4.328 v -60.902 l 0.027,-7.881 4.042,-0.004 c 6.567,10.017 17.962,16.896 29.97,17.521" style="fill:#fafafa;fill-opacity:1;fill-rule:nonzero;stroke:none" id="path460"/></g><g id="g462" clip-path="url(#clipPath2781)" transform="translate(344.30185,243.0114)"><path d="m 0,0 c -3.083,2.528 -8.381,1.892 -12.039,-0.306 -4.271,-2.564 -7.613,-6.623 -12.212,-8.539 -11.351,-4.729 -24.758,5.376 -36.269,1.052 -9.002,-3.382 -13.877,-14.671 -23.362,-16.268 -5.173,-0.871 -10.296,1.471 -15.507,2.08 -6.94,0.811 -14.193,-1.652 -19.203,-6.522 -5.011,-4.87 -7.68,-12.05 -7.066,-19.01 l 3.929,-1.042 c 5.709,-0.658 11.337,-0.779 16.76,1.055 15.624,5.281 24.129,25.174 40.513,27.065 9.084,1.049 18.155,-4.004 27.17,-2.469 7.314,1.246 13.138,6.55 19.18,10.854 5.939,4.232 11.872,8.259 18.617,5.785 v 5.789 C 0.348,-0.307 0.179,-0.146 0,0" style="fill:#ff4f5b;fill-opacity:1;fill-rule:nonzero;stroke:none" id="path464"/></g><g id="g466" clip-path="url(#clipPath2775)" transform="translate(333.39365,221.6257)" style="fill:red;fill-opacity:1"><path d="m 0,0 c -1.361,-0.67 -3.227,0.081 -3.74,1.509 -0.413,1.145 0.13,2.499 1.12,3.174 L -2.891,4.557 c 0.278,0.219 0.6,0.363 0.939,0.449 0.045,0.013 0.085,0.037 0.131,0.048 L -1.87,5.03 C -0.776,5.27 0.482,4.843 1.09,3.885 1.903,2.604 1.361,0.67 0,0 m -35.416,-36.214 c -5.081,-2.501 -12.043,0.305 -13.964,5.633 -1.515,4.199 0.394,9.183 3.967,11.746 l -0.794,-0.369 c 0.886,0.703 1.892,1.207 2.953,1.54 0.339,0.126 0.685,0.233 1.04,0.317 l -0.179,-0.083 c 4.082,0.888 8.78,-0.708 11.047,-4.28 3.035,-4.781 1.011,-12.002 -4.07,-14.504 M -7.198,9.336 C -13.24,5.031 -19.063,-0.272 -26.378,-1.519 -35.393,-3.054 -44.464,2 -53.548,0.951 -69.932,-0.94 -78.437,-20.833 -94.061,-26.114 c -5.422,-1.834 -11.05,-1.713 -16.76,-1.055 -7.323,0.843 -14.779,2.568 -22.11,2.188 -12.007,-0.625 -23.402,-7.504 -29.969,-17.522 l 3.976,-0.004 c 3.834,3.98 8.888,6.733 14.397,8.077 7.991,1.95 16.798,0.251 23.492,-4.528 1.536,-1.098 2.982,-2.355 4.436,-3.593 l 29.815,-0.031 c 1.318,0.744 2.639,1.483 3.987,2.168 5.4,2.743 11.567,4.644 17.492,3.389 3.645,-0.773 7.08,-2.764 9.132,-5.589 l 31.925,-0.033 c 1.056,2.116 2.888,3.849 5.156,4.542 2.407,0.735 5.187,0.457 7.245,1.906 2.398,1.687 2.846,4.969 3.825,7.732 2.713,7.672 11.461,12.636 19.441,11.129 V 15.121 C 4.674,17.595 -1.259,13.567 -7.198,9.336" style="fill:red;fill-opacity:1;fill-rule:nonzero;stroke:none" id="path468"/></g><g id="g470" clip-path="url(#clipPath2769)" transform="translate(325.37115,193.1589)"><path d="m 0,0 c -0.979,-2.764 -1.427,-6.045 -3.824,-7.732 -2.059,-1.45 -4.838,-1.171 -7.245,-1.907 -2.269,-0.692 -4.101,-2.425 -5.157,-4.542 l 35.667,-0.037 V 11.129 C 11.462,12.636 2.714,7.672 0,0" style="fill:#ff4f5b;fill-opacity:1;fill-rule:nonzero;stroke:none" id="path472"/></g><g id="g474" clip-path="url(#clipPath2763)" transform="translate(188.86625,187.196)"><path d="m 0,0 c -5.509,-1.345 -10.563,-4.098 -14.397,-8.077 l 42.325,-0.044 c -1.453,1.238 -2.9,2.495 -4.436,3.593 C 16.798,0.251 7.991,1.949 0,0" style="fill:#ff4f5b;fill-opacity:1;fill-rule:nonzero;stroke:none" id="path476"/></g><g id="g482" clip-path="url(#clipPath2751)" transform="translate(255.73255,282.4333)" style="fill:red;fill-opacity:1"><path d="m 0,0 c -5.329,-0.395 -11.024,0.521 -15.763,-1.948 -4.243,-2.212 -6.823,-6.712 -10.296,-9.961 0.292,-0.1 0.582,-0.212 0.875,-0.297 8.83,-2.555 18.361,-1.478 27.209,1.015 9.8,2.762 19.598,7.274 29.701,5.977 7.103,-0.912 13.482,-4.621 19.68,-8.184 6.199,-3.563 12.694,-7.137 19.831,-7.728 6.726,-0.558 14.191,2.292 17.226,8.158 v 2.291 19.544 L 11.908,8.902 C 11.53,3.631 5.296,0.393 0,0" style="fill:red;fill-opacity:1;fill-rule:nonzero;stroke:none" id="path484"/></g><g id="g486" clip-path="url(#clipPath2745)" transform="translate(315.09475,245.9645)" style="fill:red;fill-opacity:1"><path d="m 0,0 c 0.844,-2.342 3.903,-3.574 6.136,-2.476 2.233,1.1 3.123,4.273 1.789,6.374 C 6.928,5.469 4.861,6.169 3.067,5.777 L 3.148,5.815 C 3.073,5.798 3.007,5.758 2.934,5.736 2.378,5.596 1.849,5.36 1.394,5 L 1.839,5.206 C 0.213,4.099 -0.678,1.879 0,0" style="fill:red;fill-opacity:1;fill-rule:nonzero;stroke:none" id="path488"/></g><g id="g490" clip-path="url(#clipPath2739)" transform="translate(291.00105,204.196)"><path d="m 0,0 0.179,0.083 c -0.356,-0.084 -0.701,-0.191 -1.04,-0.317 -1.062,-0.333 -2.068,-0.837 -2.953,-1.54 l 0.793,0.369 c -3.573,-2.564 -5.481,-7.547 -3.966,-11.746 1.921,-5.328 8.883,-8.134 13.964,-5.633 5.081,2.502 7.105,9.722 4.07,14.504 C 8.779,-0.708 4.082,0.888 0,0" style="fill:#ff4f5b;fill-opacity:1;fill-rule:nonzero;stroke:none" id="path492"/></g><g id="g494" clip-path="url(#clipPath2733)" transform="translate(1.0121486)"><g id="g508"><g id="g506" clip-path="url(#clipPath500)" opacity=".3"><g id="g504" transform="translate(289.9889,204.196)"><path d="m 0,0 0.179,0.083 c -0.356,-0.084 -0.701,-0.191 -1.04,-0.317 -1.062,-0.333 -2.068,-0.837 -2.953,-1.54 l 0.793,0.369 c -3.573,-2.564 -5.481,-7.547 -3.966,-11.746 1.921,-5.328 8.883,-8.134 13.964,-5.633 5.081,2.502 7.105,9.722 4.07,14.504 C 8.779,-0.708 4.082,0.888 0,0" style="fill:#fff;fill-opacity:1;fill-rule:nonzero;stroke:none" id="path502"/></g></g></g></g><g id="g510" clip-path="url(#clipPath2727)" transform="translate(334.48345,225.5104)"><path d="m 0,0 c -0.607,0.958 -1.866,1.385 -2.96,1.146 l 0.049,0.023 C -2.957,1.158 -2.997,1.134 -3.042,1.121 -3.381,1.035 -3.703,0.892 -3.98,0.672 l 0.27,0.126 C -4.7,0.123 -5.243,-1.23 -4.83,-2.376 -4.316,-3.804 -2.451,-4.555 -1.09,-3.885 0.271,-3.215 0.813,-1.28 0,0" style="fill:#ff4f5b;fill-opacity:1;fill-rule:nonzero;stroke:none" id="path512"/></g><g id="g514" clip-path="url(#clipPath2721)" transform="translate(193.12655,252.238)"><path d="m 0,0 c 3.019,3.99 4.449,9.334 8.561,12.185 6.863,4.759 16.893,-0.125 24.409,3.518 1.376,0.667 2.574,1.58 3.684,2.619 3.472,3.249 6.053,7.749 10.296,9.961 4.738,2.469 10.434,1.553 15.763,1.948 5.295,0.392 11.423,3.595 11.801,8.867 0.003,0.033 -10e-4,-0.034 0,0 H 46.096 -27.059 l 0.148,-43.299 c 0.067,-0.046 0.141,-0.082 0.209,-0.127 C -18.989,-9.487 -5.57,-7.362 0,0" style="fill:#ff4f5b;fill-opacity:1;fill-rule:nonzero;stroke:none" id="path516"/></g><g id="g518" clip-path="url(#clipPath2715)" transform="translate(1.0121486)"><g id="g532"><g id="g530" clip-path="url(#clipPath524)" opacity=".3"><g id="g528" transform="translate(343.2897,243.0114)"><path d="m 0,0 c -3.083,2.528 -8.381,1.892 -12.039,-0.306 -4.271,-2.564 -7.613,-6.623 -12.212,-8.539 -11.351,-4.729 -24.758,5.376 -36.269,1.052 -9.002,-3.382 -13.877,-14.671 -23.362,-16.268 -5.173,-0.871 -10.296,1.471 -15.507,2.08 -6.94,0.811 -14.193,-1.652 -19.203,-6.522 -5.011,-4.87 -7.68,-12.05 -7.066,-19.01 l 3.929,-1.042 c 5.709,-0.658 11.337,-0.779 16.76,1.055 15.624,5.281 24.129,25.174 40.513,27.065 9.084,1.049 18.155,-4.004 27.17,-2.469 7.314,1.246 13.138,6.55 19.18,10.854 5.939,4.232 11.872,8.259 18.617,5.785 v 5.789 C 0.348,-0.307 0.179,-0.146 0,0" style="fill:#fff;fill-opacity:1;fill-rule:nonzero;stroke:none" id="path526"/></g></g></g></g><g id="g534" clip-path="url(#clipPath2709)" transform="translate(1.0121486)"><g id="g548"><g id="g546" clip-path="url(#clipPath540)" opacity=".3"><g id="g544" transform="translate(238.2101,291.3356)"><path d="m 0,0 h -73.155 l 0.148,-43.299 c 0.067,-0.046 0.142,-0.082 0.209,-0.127 7.713,-5.159 21.132,-3.034 26.702,4.328 3.019,3.991 4.45,9.335 8.561,12.185 6.864,4.759 16.893,-0.125 24.409,3.518 1.376,0.667 2.575,1.581 3.685,2.619 3.472,3.25 6.052,7.749 10.295,9.961 4.738,2.47 10.434,1.553 15.764,1.948 5.295,0.392 11.423,3.596 11.8,8.867" style="fill:#fff;fill-opacity:1;fill-rule:nonzero;stroke:none" id="path542"/></g></g></g></g><g id="g550" clip-path="url(#clipPath2703)" transform="translate(295.29695,238.8571)"><path d="m 0,0 c -0.327,1.277 -2.688,10.477 -7.024,27.373 l 0.084,-0.05 C -26.025,22.466 -54.078,15.328 -85.288,7.386 l -0.005,-0.001 0.075,0.126 c 2.421,-9.536 4.767,-18.777 6.954,-27.391 l -0.122,0.072 C -33.378,-8.435 -2.322,-0.587 0,0 -2.318,-0.593 -33.356,-8.518 -78.336,-20.002 l -0.098,-0.025 -0.025,0.097 c -2.189,8.614 -4.537,17.854 -6.96,27.39 l -0.026,0.101 0.101,0.026 0.005,0.001 c 31.217,7.915 59.276,15.029 78.364,19.87 l 0.069,0.017 0.016,-0.068 C -2.637,10.49 -0.321,1.278 0,0" style="fill:#1a2e35;fill-opacity:1;fill-rule:nonzero;stroke:none" id="path552"/></g><g id="g554" clip-path="url(#clipPath2697)" transform="translate(296.49905,238.3776)"><path d="m 0,0 -2.029,-0.515 -0.515,2.029 2.028,0.514 z" style="fill:#375a64;fill-opacity:1;fill-rule:nonzero;stroke:none" id="path556"/></g><g id="g558" clip-path="url(#clipPath2691)" transform="translate(218.20755,218.196)"><path d="m 0,0 -2.028,-0.516 -0.516,2.029 2.029,0.515 z" style="fill:#375a64;fill-opacity:1;fill-rule:nonzero;stroke:none" id="path560"/></g><g id="g562" clip-path="url(#clipPath2685)" transform="translate(289.51475,265.8732)"><path d="m 0,0 -2.028,-0.516 -0.516,2.029 2.028,0.515 z" style="fill:#375a64;fill-opacity:1;fill-rule:nonzero;stroke:none" id="path564"/></g><g id="g566" clip-path="url(#clipPath2679)" transform="translate(250.01525,255.84)"><path d="m 0,0 -2.028,-0.516 -0.515,2.029 2.028,0.515 z" style="fill:#375a64;fill-opacity:1;fill-rule:nonzero;stroke:none" id="path568"/></g><g id="g570" clip-path="url(#clipPath2673)" transform="translate(256.99915,228.3444)"><path d="m 0,0 -2.028,-0.515 -0.516,2.029 2.029,0.514 z" style="fill:#375a64;fill-opacity:1;fill-rule:nonzero;stroke:none" id="path572"/></g><g id="g574" clip-path="url(#clipPath2667)" transform="translate(214.61185,232.3513)"><path d="m 0,0 -2.029,-0.515 -0.515,2.029 2.029,0.515 z" style="fill:#375a64;fill-opacity:1;fill-rule:nonzero;stroke:none" id="path576"/></g><g id="g578" clip-path="url(#clipPath2661)" transform="translate(292.97365,252.256)"><path d="m 0,0 -2.029,-0.515 -0.515,2.029 2.028,0.515 z" style="fill:#375a64;fill-opacity:1;fill-rule:nonzero;stroke:none" id="path580"/></g><g id="g582" clip-path="url(#clipPath2655)" transform="translate(211.25005,245.5856)"><path d="m 0,0 -2.028,-0.515 -0.516,2.029 2.029,0.515 z" style="fill:#375a64;fill-opacity:1;fill-rule:nonzero;stroke:none" id="path584"/></g><g id="g586" clip-path="url(#clipPath2649)" transform="translate(229.22275,243.9587)"><path d="M 0,0 -5.64,-1.433 -6.319,1.241 8.123,4.909 8.802,2.235 3.161,0.803 6.804,-13.542 3.644,-14.345 Z" style="fill:#1a2e35;fill-opacity:1;fill-rule:nonzero;stroke:none" id="path588"/></g><g id="g590" clip-path="url(#clipPath2643)" transform="translate(242.45565,240.0729)"><path d="M 0,0 7.367,1.871 C 6.648,3.682 4.887,4.605 2.893,4.099 0.924,3.599 -0.19,1.971 0,0 M 10.724,0.575 0.537,-2.012 c 0.846,-1.803 2.735,-2.618 4.997,-2.043 1.459,0.37 2.484,1.122 3.166,2.306 l 2.104,-1.459 C 9.99,-4.89 8.353,-6.084 6.115,-6.651 1.763,-7.757 -1.768,-5.678 -2.75,-1.811 -3.731,2.055 -1.591,5.549 2.275,6.53 6.068,7.494 9.513,5.548 10.543,1.488 10.605,1.245 10.674,0.874 10.724,0.575" style="fill:#1a2e35;fill-opacity:1;fill-rule:nonzero;stroke:none" id="path592"/></g><g id="g594" clip-path="url(#clipPath2637)" transform="translate(265.45315,237.8913)"><path d="m 0,0 -4.474,3.652 -2.213,-5.35 -3.354,-0.853 3.384,7.874 -6.463,5.165 3.38,0.859 4.264,-3.446 2.105,5.063 3.283,0.834 -3.251,-7.58 6.768,-5.347 z" style="fill:#1a2e35;fill-opacity:1;fill-rule:nonzero;stroke:none" id="path596"/></g><g id="g598" clip-path="url(#clipPath2631)" transform="translate(278.74715,242.0192)"><path d="m 0,0 c -0.58,-0.77 -1.601,-1.34 -2.695,-1.617 -2.844,-0.723 -4.857,0.371 -5.585,3.24 l -1.587,6.249 -2.14,-0.544 -0.618,2.431 2.141,0.543 -0.754,2.966 3.039,0.773 0.754,-2.966 3.476,0.883 L -3.352,9.527 -6.828,8.644 -5.26,2.469 C -4.938,1.204 -4.133,0.684 -2.967,0.98 -2.334,1.141 -1.77,1.465 -1.4,1.947 Z" style="fill:#1a2e35;fill-opacity:1;fill-rule:nonzero;stroke:none" id="path600"/></g><g id="g602" clip-path="url(#clipPath2625)" transform="translate(293.72075,245.0612)"><path d="m 0,0 c 0.015,-0.056 -17.518,-4.557 -39.152,-10.053 -21.644,-5.498 -39.195,-9.907 -39.209,-9.851 -0.014,0.055 17.514,4.555 39.157,10.053 C -17.568,-4.355 -0.014,0.056 0,0" style="fill:#1a2e35;fill-opacity:1;fill-rule:nonzero;stroke:none" id="path604"/></g><g id="g606" clip-path="url(#clipPath2619)" transform="translate(457.20905,244.3991)"><path d="m 0,0 c -0.032,0.045 0.662,0.276 1.57,1.226 0.909,0.922 1.865,2.753 1.939,5.244 0.027,1.233 -0.15,2.639 -0.786,4.005 -0.616,1.363 -1.722,2.659 -3.194,3.608 -2.934,1.957 -7.37,2.338 -11.459,0.583 -4.161,-1.661 -7.879,-4.962 -11.972,-8.264 -2.067,-1.637 -4.29,-3.278 -6.861,-4.492 -2.578,-1.19 -5.484,-1.864 -8.48,-1.914 -5.967,-0.05 -12.355,2.406 -16.722,7.31 -2.203,2.401 -3.87,5.393 -4.682,8.674 -0.785,3.252 -0.669,6.961 1.148,10.004 0.891,1.502 2.096,2.818 3.561,3.748 1.442,0.959 3.175,1.489 4.908,1.416 1.73,-0.113 3.377,-0.898 4.578,-2.093 1.201,-1.205 1.971,-2.745 2.424,-4.321 0.879,-3.161 0.576,-6.617 -1.007,-9.389 -1.6,-2.755 -4.257,-4.695 -7.094,-5.669 -2.849,-0.987 -5.864,-1.14 -8.662,-0.656 -2.801,0.487 -5.384,1.51 -7.75,2.688 -4.737,2.386 -8.701,5.327 -12.565,7.571 -3.835,2.281 -7.598,3.913 -11.102,4.462 -3.496,0.558 -6.613,0.036 -8.911,-0.895 -2.319,-0.929 -3.842,-2.204 -4.735,-3.157 -0.218,-0.242 -0.413,-0.456 -0.583,-0.644 -0.148,-0.194 -0.275,-0.359 -0.381,-0.499 -0.206,-0.267 -0.323,-0.397 -0.323,-0.397 0,0 0.087,0.15 0.28,0.429 0.101,0.144 0.221,0.316 0.363,0.517 0.165,0.194 0.354,0.416 0.566,0.665 0.876,0.984 2.397,2.302 4.737,3.274 2.319,0.973 5.474,1.534 9.033,0.995 3.559,-0.53 7.375,-2.16 11.241,-4.432 3.897,-2.237 7.872,-5.158 12.572,-7.502 2.346,-1.158 4.893,-2.156 7.636,-2.624 2.728,-0.464 5.667,-0.305 8.426,0.658 2.747,0.951 5.296,2.827 6.821,5.465 1.502,2.63 1.796,5.972 0.947,9 -0.435,1.509 -1.172,2.971 -2.296,4.097 -1.126,1.114 -2.643,1.832 -4.245,1.94 -1.601,0.065 -3.227,-0.424 -4.596,-1.336 -1.39,-0.882 -2.543,-2.14 -3.394,-3.575 -1.73,-2.89 -1.853,-6.46 -1.094,-9.618 0.786,-3.185 2.411,-6.111 4.558,-8.454 4.257,-4.794 10.504,-7.208 16.338,-7.172 2.93,0.043 5.769,0.694 8.291,1.849 2.52,1.181 4.724,2.793 6.786,4.416 4.089,3.27 7.855,6.595 12.104,8.266 4.181,1.771 8.753,1.36 11.755,-0.681 C 1.199,13.335 2.324,11.995 2.949,10.578 3.591,9.162 3.755,7.722 3.711,6.463 3.604,3.921 2.596,2.07 1.646,1.153 1.422,0.905 1.195,0.721 0.987,0.575 0.792,0.415 0.613,0.302 0.458,0.229 0.158,0.069 0,0 0,0" style="fill:#1a2e35;fill-opacity:1;fill-rule:nonzero;stroke:none" id="path608"/></g><g id="g610" clip-path="url(#clipPath2613)" transform="translate(1.0121486)" style="fill:#fff;fill-opacity:1"><g id="g624" style="fill:#fff;fill-opacity:1"><g id="g622" clip-path="url(#clipPath616)" opacity=".3" style="fill:#fff;fill-opacity:1"><g id="g620" transform="translate(324.359,193.1589)" style="fill:#fff;fill-opacity:1"><path d="m 0,0 c -0.979,-2.764 -1.427,-6.045 -3.824,-7.732 -2.059,-1.45 -4.838,-1.171 -7.245,-1.907 -2.269,-0.692 -4.101,-2.425 -5.157,-4.542 l 35.667,-0.037 V 11.129 C 11.462,12.636 2.714,7.672 0,0" style="fill:#fff;fill-opacity:1;fill-rule:nonzero;stroke:none" id="path618"/></g></g></g></g><g id="g626" clip-path="url(#clipPath2607)" transform="translate(1.0121486)"><g id="g640"><g id="g638" clip-path="url(#clipPath632)" opacity=".3"><g id="g636" transform="translate(333.4713,225.5104)"><path d="m 0,0 c -0.607,0.958 -1.866,1.385 -2.96,1.146 l 0.049,0.023 C -2.957,1.158 -2.997,1.134 -3.042,1.121 -3.381,1.035 -3.703,0.892 -3.98,0.672 l 0.27,0.126 C -4.7,0.123 -5.243,-1.23 -4.83,-2.376 -4.316,-3.804 -2.451,-4.555 -1.09,-3.885 0.271,-3.215 0.813,-1.28 0,0" style="fill:#000;fill-opacity:1;fill-rule:nonzero;stroke:none" id="path634"/></g></g></g></g><g id="g642" clip-path="url(#clipPath2601)" transform="translate(1.0121486)" style="fill:#ff6161;fill-opacity:1"><g id="g656" style="fill:#ff6161;fill-opacity:1"><g id="g654" clip-path="url(#clipPath648)" opacity=".3" style="fill:#ff6161;fill-opacity:1"><g id="g652" transform="translate(187.8541,187.196)" style="fill:#ff6161;fill-opacity:1"><path d="m 0,0 c -5.509,-1.345 -10.563,-4.098 -14.397,-8.077 l 42.325,-0.044 c -1.453,1.238 -2.9,2.495 -4.436,3.593 C 16.798,0.251 7.991,1.949 0,0" style="fill:#ff6161;fill-opacity:1;fill-rule:nonzero;stroke:none" id="path650"/></g></g></g></g><g id="g698" clip-path="url(#clipPath2571)" transform="translate(295.64365,236.4255)"><path d="M 0,0 -1.043,0.543 -0.946,0.729 0.097,0.186 Z" style="fill:#1a2e35;fill-opacity:1;fill-rule:nonzero;stroke:none" id="path700"/></g><g id="g702" clip-path="url(#clipPath2565)" transform="translate(295.62505,236.8073)"><path d="m 0,0 4.488,-0.123 25.539,-14.051 c 0.922,-0.508 1.266,-1.66 0.774,-2.589 -0.5,-0.942 -1.669,-1.299 -2.61,-0.797 L 2.842,-4.014 -0.239,-0.509 C -0.416,-0.308 -0.268,0.008 0,0" style="fill:#1a2e35;fill-opacity:1;fill-rule:nonzero;stroke:none" id="path704"/></g><g id="g706" clip-path="url(#clipPath2559)" transform="translate(323.10065,224.0417)"><path d="m 0,0 -1.812,-3.477 -1.035,0.539 1.824,3.499 z" style="fill:#375a64;fill-opacity:1;fill-rule:nonzero;stroke:none" id="path708"/></g><path d="m 440.265,313.493 h -93.629 v 36.398 h 93.629 z" style="fill:#fafafa;fill-opacity:1;fill-rule:nonzero;stroke:none" id="path876" clip-path="url(#clipPath8089)" transform="translate(-125.50608,-4.0485832)"/><g id="g878" clip-path="url(#clipPath8083)" transform="translate(314.76012,309.44432)"><path d="m 0,0 c 0,0 -0.013,0.228 -0.02,0.655 -0.003,0.443 -0.01,1.07 -0.018,1.887 -0.011,1.669 -0.025,4.101 -0.045,7.234 -0.023,6.278 -0.057,15.355 -0.098,26.622 l 0.18,-0.18 c -23.508,-0.02 -56.776,-0.049 -93.622,-0.08 h -0.007 l 0.261,0.26 C -93.373,23.672 -93.376,11.375 -93.38,0 l -0.25,0.25 C -66.563,0.202 -43.19,0.162 -26.566,0.132 -18.252,0.103 -11.627,0.079 -7.062,0.063 -4.792,0.049 -3.038,0.039 -1.83,0.031 -1.244,0.024 -0.794,0.019 -0.472,0.016 -0.165,0.01 0,0 0,0 0,0 -0.144,-0.011 -0.44,-0.016 -0.756,-0.02 -1.196,-0.024 -1.77,-0.031 -2.965,-0.039 -4.701,-0.049 -6.948,-0.063 -11.501,-0.08 -18.106,-0.103 -26.396,-0.132 -43.063,-0.162 -66.493,-0.203 -93.63,-0.25 h -0.25 V 0 c -0.003,11.375 -0.007,23.672 -0.01,36.398 v 0.261 h 0.26 0.007 c 36.846,-0.032 70.114,-0.06 93.622,-0.08 L 0.181,36.578 0.18,36.398 C 0.139,25.084 0.105,15.971 0.082,9.667 0.062,6.552 0.048,4.134 0.037,2.474 0.029,1.67 0.022,1.054 0.018,0.619 0.012,0.203 0,0 0,0" style="fill:#1a2e35;fill-opacity:1;fill-rule:nonzero;stroke:none" id="path880"/></g><path d="m 440.265,342.091 h -93.629 v 7.799 h 93.629 z" style="fill:#1a2e35;fill-opacity:1;fill-rule:nonzero;stroke:none" id="path882" clip-path="url(#clipPath8077)" transform="translate(-125.50608,-4.0485832)"/><path d="m 366.959,326.949 h -9.195 v 9.195 h 9.195 z" style="fill:#1a2e35;fill-opacity:1;fill-rule:nonzero;stroke:none" id="path884" clip-path="url(#clipPath8071)" transform="translate(-125.50608,-4.0485832)"/><path d="m 372.527,321.38 h -9.194 v 9.195 h 9.194 z" style="fill:#1a2e35;fill-opacity:1;fill-rule:nonzero;stroke:none" id="path886" clip-path="url(#clipPath8065)" transform="translate(-125.50608,-4.0485832)"/><path d="m 388.876,326.949 h -9.195 v 9.195 h 9.195 z" style="fill:#1a2e35;fill-opacity:1;fill-rule:nonzero;stroke:none" id="path888" clip-path="url(#clipPath8059)" transform="translate(-125.50608,-4.0485832)"/><path d="m 394.444,321.38 h -9.195 v 9.195 h 9.195 z" style="fill:#f5f5f5;fill-opacity:1;fill-rule:nonzero;stroke:none" id="path890" clip-path="url(#clipPath8053)" transform="translate(-125.50608,-4.0485832)"/><g id="g892" clip-path="url(#clipPath8047)" transform="translate(268.93792,317.33152)"><path d="M 0,0 C -0.017,0.017 -0.033,0.264 -0.052,0.708 -0.067,1.226 -0.087,1.853 -0.11,2.602 -0.152,4.218 -0.203,6.487 -0.226,9.195 L 0,8.97 C -2.699,8.959 -5.841,8.948 -9.194,8.935 -9.252,8.878 -8.702,9.427 -8.935,9.193 V 9.191 9.186 9.176 9.157 9.117 9.039 8.881 8.567 L -8.936,7.944 C -8.936,7.53 -8.937,7.12 -8.937,6.714 -8.939,5.904 -8.941,5.111 -8.943,4.337 -8.953,2.8 -8.962,1.346 -8.97,0 L -9.194,0.226 C -6.486,0.203 -4.218,0.153 -2.601,0.111 -1.852,0.087 -1.226,0.068 -0.707,0.052 -0.264,0.034 -0.017,0.017 0,0 0.017,-0.017 -0.196,-0.033 -0.614,-0.051 -1.119,-0.067 -1.729,-0.087 -2.457,-0.11 -4.059,-0.152 -6.387,-0.203 -9.194,-0.225 L -9.419,-0.227 -9.42,0 c -0.008,1.346 -0.017,2.8 -0.026,4.337 -0.002,0.774 -0.004,1.567 -0.007,2.377 0,0.406 -0.001,0.816 -0.002,1.23 v 0.623 0.314 0.158 0.078 0.04 0.019 0.01 0.005 0.002 C -9.688,8.961 -9.139,9.512 -9.194,9.456 -5.841,9.443 -2.699,9.431 0,9.42 L 0.227,9.419 0.226,9.195 C 0.203,6.388 0.152,4.06 0.11,2.458 0.087,1.729 0.067,1.119 0.052,0.615 0.033,0.197 0.017,-0.017 0,0" style="fill:#1a2e35;fill-opacity:1;fill-rule:nonzero;stroke:none" id="path894"/></g><path d="m 409.325,326.949 h -9.195 v 9.195 h 9.195 z" style="fill:#f5f5f5;fill-opacity:1;fill-rule:nonzero;stroke:none" id="path896" clip-path="url(#clipPath8041)" transform="translate(-125.50608,-4.0485832)"/><g id="g898" clip-path="url(#clipPath8035)" transform="translate(283.81872,322.90032)"><path d="M 0,0 C -0.017,0.017 -0.033,0.264 -0.052,0.708 -0.067,1.226 -0.087,1.852 -0.11,2.601 -0.152,4.218 -0.203,6.487 -0.226,9.195 L 0,8.97 C -2.699,8.959 -5.841,8.947 -9.194,8.935 -9.252,8.878 -8.702,9.427 -8.935,9.193 V 9.191 9.186 9.176 9.156 9.117 9.038 8.881 8.567 7.943 C -8.936,7.53 -8.937,7.12 -8.937,6.714 -8.939,5.904 -8.941,5.11 -8.943,4.337 -8.953,2.8 -8.962,1.346 -8.97,0 L -9.194,0.226 C -6.486,0.203 -4.218,0.153 -2.601,0.11 -1.852,0.087 -1.226,0.068 -0.707,0.052 -0.264,0.034 -0.017,0.017 0,0 0.017,-0.017 -0.196,-0.033 -0.614,-0.051 -1.118,-0.067 -1.729,-0.087 -2.457,-0.11 -4.059,-0.152 -6.387,-0.203 -9.194,-0.225 L -9.419,-0.227 -9.42,0 c -0.008,1.346 -0.017,2.8 -0.026,4.337 -0.002,0.773 -0.004,1.567 -0.007,2.377 0,0.406 -0.001,0.816 -0.002,1.229 v 0.624 0.314 0.157 0.079 0.039 0.02 0.01 0.005 0.002 C -9.688,8.961 -9.139,9.512 -9.194,9.456 -5.841,9.442 -2.699,9.431 0,9.42 L 0.227,9.419 0.226,9.195 C 0.203,6.388 0.152,4.059 0.11,2.458 0.087,1.729 0.067,1.119 0.052,0.615 0.033,0.197 0.017,-0.017 0,0" style="fill:#1a2e35;fill-opacity:1;fill-rule:nonzero;stroke:none" id="path900"/></g><path d="m 414.893,321.38 h -9.194 v 9.195 h 9.194 z" style="fill:#f5f5f5;fill-opacity:1;fill-rule:nonzero;stroke:none" id="path902" clip-path="url(#clipPath8029)" transform="translate(-125.50608,-4.0485832)"/><g id="g904" clip-path="url(#clipPath8023)" transform="translate(289.38712,317.33152)"><path d="M 0,0 C -0.017,0.017 -0.033,0.264 -0.051,0.708 -0.067,1.226 -0.087,1.853 -0.11,2.602 -0.152,4.218 -0.203,6.487 -0.225,9.195 L 0,8.97 C -2.698,8.959 -5.841,8.948 -9.193,8.935 -9.251,8.878 -8.701,9.427 -8.935,9.193 V 9.191 9.186 9.176 9.157 9.117 9.039 8.881 8.567 7.944 C -8.936,7.53 -8.936,7.12 -8.937,6.714 -8.938,5.904 -8.941,5.111 -8.943,4.337 -8.952,2.8 -8.961,1.346 -8.969,0 L -9.194,0.226 C -6.486,0.203 -4.217,0.153 -2.601,0.111 -1.852,0.087 -1.226,0.068 -0.707,0.052 -0.263,0.034 -0.017,0.017 0,0 0.018,-0.017 -0.196,-0.033 -0.614,-0.051 -1.118,-0.067 -1.728,-0.087 -2.457,-0.11 -4.059,-0.152 -6.387,-0.203 -9.194,-0.225 L -9.418,-0.227 -9.42,0 C -9.428,1.346 -9.437,2.8 -9.445,4.337 -9.448,5.111 -9.45,5.904 -9.452,6.714 -9.453,7.12 -9.454,7.53 -9.454,7.944 l -10e-4,0.623 v 0.314 0.158 0.078 0.04 0.019 0.01 0.005 0.002 C -9.688,8.961 -9.138,9.512 -9.193,9.456 -5.841,9.443 -2.698,9.431 0,9.42 L 0.228,9.419 0.226,9.195 C 0.203,6.388 0.152,4.06 0.11,2.458 0.088,1.729 0.068,1.119 0.052,0.615 0.034,0.197 0.018,-0.017 0,0" style="fill:#1a2e35;fill-opacity:1;fill-rule:nonzero;stroke:none" id="path906"/></g><path d="m 409.325,326.949 h -3.626 v 3.626 h 3.626 z" style="fill:#1a2e35;fill-opacity:1;fill-rule:nonzero;stroke:none" id="path908" clip-path="url(#clipPath8017)" transform="translate(-125.50608,-4.0485832)"/><path d="m 428.125,326.949 h -9.194 v 9.195 h 9.194 z" style="fill:#1a2e35;fill-opacity:1;fill-rule:nonzero;stroke:none" id="path910" clip-path="url(#clipPath8011)" transform="translate(-125.50608,-4.0485832)"/><path d="m 433.694,321.38 h -9.195 v 9.195 h 9.195 z" style="fill:#1a2e35;fill-opacity:1;fill-rule:nonzero;stroke:none" id="path912" clip-path="url(#clipPath8005)" transform="translate(-125.50608,-4.0485832)"/><path d="m 428.125,326.949 h -3.626 v 3.626 h 3.626 z" style="fill:#fafafa;fill-opacity:1;fill-rule:nonzero;stroke:none" id="path914" clip-path="url(#clipPath7999)" transform="translate(-125.50608,-4.0485832)"/><path d="m 458.785,203.887 h -89.98 v 34.98 h 89.98 z" style="fill:#fafafa;fill-opacity:1;fill-rule:nonzero;stroke:none" id="path916" clip-path="url(#clipPath7993)"/><path d="m 368.929,204.012 h 89.73 v 34.73 h -89.73 z m 89.981,-0.25 h -90.23 v 35.23 h 90.23 z" style="fill:#1c1c1b;fill-opacity:1;fill-rule:nonzero;stroke:none" id="path918" clip-path="url(#clipPath7987)"/><path d="m 458.785,231.372 h -89.98 v 7.496 h 89.98 z" style="fill:#1a2e35;fill-opacity:1;fill-rule:nonzero;stroke:none" id="path920" clip-path="url(#clipPath7981)"/><path d="m 382.765,213.126 h -8.89 v 8.89 h 8.89 z" style="fill:#f5f5f5;fill-opacity:1;fill-rule:nonzero;stroke:none" id="path922" clip-path="url(#clipPath7975)"/><g id="g924" clip-path="url(#clipPath7969)" transform="translate(382.7653,213.1257)"><path d="M 0,0 C -0.017,0.017 -0.033,0.256 -0.052,0.686 -0.067,1.19 -0.087,1.796 -0.11,2.518 -0.152,4.081 -0.203,6.273 -0.225,8.89 L 0,8.665 C -2.611,8.654 -5.648,8.643 -8.89,8.63 -8.947,8.573 -8.396,9.122 -8.63,8.889 V 8.887 8.882 8.872 8.853 8.814 8.738 8.586 8.283 7.681 C -8.631,7.28 -8.632,6.884 -8.632,6.491 -8.635,5.708 -8.637,4.941 -8.639,4.193 -8.648,2.707 -8.657,1.302 -8.665,0 L -8.89,0.226 C -6.273,0.203 -4.08,0.152 -2.517,0.11 -1.796,0.087 -1.189,0.067 -0.686,0.052 -0.256,0.033 -0.017,0.017 0,0 0.034,-0.033 -0.823,-0.067 -2.373,-0.11 -3.922,-0.152 -6.174,-0.203 -8.89,-0.226 L -9.114,-0.228 -9.115,0 c -0.008,1.302 -0.017,2.707 -0.027,4.193 -0.002,0.748 -0.004,1.515 -0.006,2.298 0,0.393 -10e-4,0.789 -10e-4,1.19 L -9.15,8.283 v 0.303 0.152 0.076 0.039 0.019 0.01 0.005 0.002 C -9.383,8.656 -8.834,9.208 -8.89,9.15 -5.648,9.138 -2.611,9.126 0,9.115 L 0.228,9.114 0.226,8.89 C 0.203,6.174 0.152,3.922 0.11,2.374 0.067,0.823 0.034,-0.034 0,0" style="fill:#1a2e35;fill-opacity:1;fill-rule:nonzero;stroke:none" id="path926"/></g><g id="g928" clip-path="url(#clipPath7963)" transform="translate(382.7653,222.0153)"><path d="M 0,0 -8.89,-8.89" style="fill:#fafafa;fill-opacity:1;fill-rule:nonzero;stroke:none" id="path930"/></g><g id="g932" clip-path="url(#clipPath7957)" transform="translate(373.8756,213.1257)"><path d="M 0,0 C -0.103,0.102 1.806,2.175 4.261,4.629 6.716,7.084 8.788,8.992 8.89,8.89 8.991,8.788 7.084,6.716 4.629,4.261 2.174,1.806 0.102,-0.102 0,0" style="fill:#ff4f5b;fill-opacity:1;fill-rule:nonzero;stroke:none" id="path934"/></g><path d="m 394.334,213.126 h -8.891 v 8.89 h 8.891 z" style="fill:#1a2e35;fill-opacity:1;fill-rule:nonzero;stroke:none" id="path936" clip-path="url(#clipPath7951)"/><path d="m 405.901,213.126 h -8.89 v 8.89 h 8.89 z" style="fill:#375a64;fill-opacity:1;fill-rule:nonzero;stroke:none" id="path938" clip-path="url(#clipPath7945)"/><path d="m 417.469,213.126 h -8.89 v 8.89 h 8.89 z" style="fill:#ff4f5b;fill-opacity:1;fill-rule:nonzero;stroke:none" id="path940" clip-path="url(#clipPath7939)"/><path d="m 429.038,213.126 h -8.891 v 8.89 h 8.891 z" style="fill:#ff4f5b;fill-opacity:1;fill-rule:nonzero;stroke:none" id="path942" clip-path="url(#clipPath7933)"/><g id="g944" clip-path="url(#clipPath7927)"><g id="g956"><g id="g954" clip-path="url(#clipPath950)" opacity=".5"><path d="m 429.038,213.126 h -8.891 v 8.89 h 8.891 z" style="fill:#fff;fill-opacity:1;fill-rule:nonzero;stroke:none" id="path952"/></g></g></g><path d="m 440.605,213.126 h -8.89 v 8.89 h 8.89 z" style="fill:#ff4f5b;fill-opacity:1;fill-rule:nonzero;stroke:none" id="path958" clip-path="url(#clipPath7921)"/><g id="g960" clip-path="url(#clipPath7915)"><g id="g972"><g id="g970" clip-path="url(#clipPath966)" opacity=".3"><path d="m 440.605,213.126 h -8.89 v 8.89 h 8.89 z" style="fill:#000;fill-opacity:1;fill-rule:nonzero;stroke:none" id="path968"/></g></g></g><path d="m 452.173,213.126 h -8.891 v 8.89 h 8.891 z" style="fill:#ff4f5b;fill-opacity:1;fill-rule:nonzero;stroke:none" id="path974" clip-path="url(#clipPath7909)"/><g id="g976" clip-path="url(#clipPath7903)"><g id="g988"><g id="g986" clip-path="url(#clipPath982)" opacity=".7"><path d="m 452.173,213.126 h -8.891 v 8.89 h 8.891 z" style="fill:#000;fill-opacity:1;fill-rule:nonzero;stroke:none" id="path984"/></g></g></g><path d="m 181.646,224.65 h -55.381 v 94.989 h 55.381 z" style="fill:#fafafa;fill-opacity:1;fill-rule:nonzero;stroke:none" id="path1024" clip-path="url(#clipPath7825)"/><g id="g1026" clip-path="url(#clipPath7819)" transform="translate(181.6461,224.6501)"><path d="m 0,0 c 0,0 -0.01,0.163 -0.015,0.469 -0.003,0.319 -0.008,0.769 -0.014,1.356 -0.007,1.204 -0.017,2.96 -0.03,5.237 -0.015,4.577 -0.038,11.233 -0.066,19.627 -0.028,16.78 -0.069,40.495 -0.117,68.3 L 0,94.747 c -17.05,-0.006 -35.774,-0.012 -55.374,-0.018 h -0.007 l 0.26,0.26 C -55.143,58.754 -55.164,25.52 -55.18,0 l -0.201,0.201 C -38.42,0.156 -24.603,0.119 -15.006,0.094 -10.208,0.072 -6.47,0.055 -3.913,0.043 -2.647,0.033 -1.678,0.026 -1.006,0.021 -0.349,0.014 0,0 0,0 c 0,0 -0.32,-0.015 -0.965,-0.021 -0.662,-0.006 -1.62,-0.013 -2.869,-0.023 -2.547,-0.012 -6.27,-0.029 -11.048,-0.051 -9.626,-0.025 -23.487,-0.062 -40.499,-0.107 h -0.201 V 0 c -0.016,25.52 -0.037,58.754 -0.059,94.989 l -0.001,0.261 h 0.261 0.007 C -35.774,95.243 -17.05,95.237 0,95.231 H 0.242 V 94.989 C 0.194,67.118 0.153,43.348 0.124,26.528 0.096,18.158 0.074,11.521 0.059,6.957 0.045,4.701 0.036,2.962 0.029,1.769 0.022,1.193 0.018,0.753 0.014,0.44 0.009,0.144 0,0 0,0" style="fill:#1c1c1b;fill-opacity:1;fill-rule:nonzero;stroke:none" id="path1028"/></g><path d="m 181.646,311.635 h -55.381 v 8.004 h 55.381 z" style="fill:#1a2e35;fill-opacity:1;fill-rule:nonzero;stroke:none" id="path1030" clip-path="url(#clipPath7813)"/><g id="g1032" clip-path="url(#clipPath7807)" transform="translate(139.5744,301.6457)"><path d="m 0,0 0.67,-8.868 2.478,3.233 4.142,0.173 z" style="fill:#1a2e35;fill-opacity:1;fill-rule:nonzero;stroke:none" id="path1034"/></g><g id="g1036" clip-path="url(#clipPath7801)" transform="translate(163.5084,301.6457)"><path d="M 0,0 C -0.008,0.016 0.174,-0.113 0.522,-0.361 0.955,-0.672 1.456,-1.032 2.037,-1.449 3.34,-2.386 5.221,-3.737 7.378,-5.343 L 7.713,-5.593 7.295,-5.611 C 6.045,-5.666 4.699,-5.724 3.298,-5.785 L 3.155,-5.791 3.272,-5.73 C 2.4,-6.863 1.563,-7.95 0.787,-8.958 L 0.55,-9.266 0.522,-8.879 c -0.19,2.627 -0.313,4.884 -0.399,6.447 -0.039,0.696 -0.071,1.296 -0.1,1.815 C 0.001,-0.201 -0.008,0.015 0,0 0.008,-0.015 0.034,-0.26 0.076,-0.7 0.127,-1.232 0.186,-1.847 0.254,-2.56 0.405,-4.138 0.617,-6.314 0.817,-8.857 l -0.265,0.079 c 0.773,1.011 1.605,2.102 2.472,3.238 l 0.044,0.059 0.074,0.002 0.143,0.006 c 1.401,0.056 2.748,0.11 3.998,0.159 L 7.2,-5.582 C 5.12,-4.012 3.355,-2.631 2.074,-1.631 1.495,-1.179 0.995,-0.789 0.563,-0.452 0.207,-0.173 0.008,-0.015 0,0" style="fill:#1a2e35;fill-opacity:1;fill-rule:nonzero;stroke:none" id="path1038"/></g><g id="g1040" clip-path="url(#clipPath7795)" transform="translate(137.964,263.0583)"><path d="m 0,0 c -0.062,0.06 2.696,2.999 6.16,6.563 3.465,3.565 6.322,6.406 6.384,6.346 C 12.606,12.849 9.849,9.911 6.384,6.345 2.92,2.781 0.062,-0.06 0,0" style="fill:#1a2e35;fill-opacity:1;fill-rule:nonzero;stroke:none" id="path1042"/></g><g id="g1044" clip-path="url(#clipPath7789)" transform="translate(176.4118,269.6017)"><path d="m 0,0 c -0.046,-0.003 0.002,0.725 -0.303,1.975 -0.307,1.223 -1.079,3.039 -2.89,4.467 -0.897,0.698 -2.035,1.292 -3.353,1.537 -1.31,0.233 -2.793,0.184 -4.194,-0.373 -1.406,-0.518 -2.717,-1.522 -3.652,-2.859 -0.952,-1.33 -1.483,-3.012 -1.498,-4.746 0.014,-1.734 0.545,-3.417 1.498,-4.748 0.934,-1.337 2.246,-2.341 3.652,-2.859 1.401,-0.557 2.884,-0.606 4.194,-0.373 1.318,0.246 2.457,0.84 3.353,1.538 1.811,1.428 2.583,3.243 2.89,4.466 C 0.002,-0.725 -0.046,0.004 0,0 c 0,0 0.087,-0.726 -0.185,-2.003 -0.275,-1.249 -1.028,-3.121 -2.87,-4.611 -0.912,-0.729 -2.08,-1.354 -3.441,-1.619 -1.353,-0.253 -2.889,-0.211 -4.346,0.358 -1.462,0.53 -2.827,1.566 -3.8,2.952 -0.992,1.379 -1.547,3.126 -1.56,4.924 0.014,1.798 0.569,3.545 1.56,4.922 0.974,1.386 2.338,2.422 3.8,2.952 1.457,0.569 2.993,0.611 4.345,0.358 1.361,-0.265 2.529,-0.89 3.441,-1.618 C -1.213,5.124 -0.46,3.252 -0.185,2.003 0.087,0.726 0,0 0,0" style="fill:#1a2e35;fill-opacity:1;fill-rule:nonzero;stroke:none" id="path1046"/></g><g id="g1048" clip-path="url(#clipPath7783)" transform="translate(169.2379,248.5016)"><path d="M 0,0 C 0.001,0.009 0.068,-0.041 0.198,-0.146 0.367,-0.287 0.555,-0.443 0.772,-0.625 1.345,-1.116 2.07,-1.738 2.953,-2.496 l 0.07,-0.061 -0.062,-0.071 c -2.222,-2.555 -5.531,-6.359 -9.3,-10.69 l -0.037,-0.043 -0.057,-0.009 c -0.355,-0.054 -0.736,-0.111 -1.119,-0.17 -0.682,-0.103 -1.356,-0.204 -2.017,-0.304 l -0.219,-0.033 0.043,0.217 c 0.252,1.271 0.496,2.5 0.726,3.664 l 0.008,0.038 0.025,0.029 c 2.521,2.967 4.72,5.493 6.316,7.255 C -1.084,-0.907 -0.06,0.076 0,0 -0.002,-0.007 -0.07,-0.074 -0.186,-0.177 -0.299,-0.299 -0.478,-0.474 -0.693,-0.715 -1.131,-1.188 -1.752,-1.9 -2.531,-2.797 -4.086,-4.592 -6.254,-7.143 -8.758,-10.121 l 0.032,0.067 c -0.227,-1.165 -0.466,-2.393 -0.713,-3.667 l -0.176,0.184 c 0.661,0.1 1.334,0.203 2.016,0.307 0.384,0.057 0.765,0.115 1.12,0.168 l -0.094,-0.051 c 3.806,4.299 7.149,8.073 9.394,10.608 L 2.83,-2.637 C 1.985,-1.86 1.292,-1.224 0.744,-0.721 0.534,-0.522 0.353,-0.351 0.189,-0.197 0.064,-0.075 -0.001,-0.009 0,0" style="fill:#1a2e35;fill-opacity:1;fill-rule:nonzero;stroke:none" id="path1050"/></g><g id="g1052" clip-path="url(#clipPath7777)" transform="translate(148.9811,235.5456)"><path d="m 0,0 c -0.005,0.005 -0.01,0.094 -0.016,0.261 -0.004,0.208 -0.009,0.447 -0.015,0.728 -0.01,0.7 -0.021,1.611 -0.036,2.733 -0.017,2.405 -0.041,5.709 -0.069,9.639 L 0,13.226 c -3.802,-0.006 -8.247,-0.013 -12.984,-0.021 -0.036,-0.033 0.295,0.295 0.155,0.154 V 13.355 13.349 13.334 13.306 13.248 13.134 12.904 12.448 11.54 C -12.83,10.938 -12.83,10.342 -12.831,9.752 -12.832,8.573 -12.833,7.419 -12.834,6.296 -12.84,4.057 -12.846,1.943 -12.851,0 l -0.134,0.135 C -9.159,0.106 -5.95,0.083 -3.612,0.065 -2.524,0.051 -1.641,0.039 -0.96,0.03 -0.687,0.024 -0.456,0.02 -0.253,0.015 -0.091,0.01 -0.005,0.005 0,0 0.005,-0.005 -0.071,-0.01 -0.224,-0.016 -0.418,-0.02 -0.642,-0.024 -0.905,-0.031 -1.578,-0.04 -2.451,-0.052 -3.526,-0.066 -5.885,-0.083 -9.124,-0.106 -12.985,-0.135 L -13.119,-0.136 -13.12,0 c -0.005,1.943 -0.01,4.057 -0.016,6.296 -0.001,1.123 -0.003,2.277 -0.004,3.456 0,0.59 -10e-4,1.186 -10e-4,1.788 v 0.908 l -10e-4,0.456 v 0.23 0.114 0.058 0.028 0.015 0.006 0.004 c -0.139,-0.138 0.19,0.193 0.158,0.159 C -8.247,13.511 -3.802,13.503 0,13.498 L 0.137,13.497 0.136,13.361 C 0.107,9.396 0.084,6.062 0.067,3.635 0.052,2.525 0.04,1.625 0.031,0.934 0.025,0.662 0.02,0.432 0.015,0.23 0.01,0.073 0.005,-0.006 0,0" style="fill:#1a2e35;fill-opacity:1;fill-rule:nonzero;stroke:none" id="path1054"/></g><g id="g1056" clip-path="url(#clipPath7771)" transform="translate(137.964,248.9069)"><path d="m 0,0 c 0,-0.086 -1.261,-0.156 -2.815,-0.156 -1.555,0 -2.815,0.07 -2.815,0.156 0,0.087 1.26,0.157 2.815,0.157 C -1.261,0.157 0,0.087 0,0" style="fill:#1a2e35;fill-opacity:1;fill-rule:nonzero;stroke:none" id="path1058"/></g><g id="g1060" clip-path="url(#clipPath7765)" transform="translate(135.9962,246.3376)"><path d="M 0,0 C -0.086,0 -0.157,1.419 -0.157,3.169 -0.157,4.92 -0.086,6.338 0,6.338 0.086,6.338 0.156,4.92 0.156,3.169 0.156,1.419 0.086,0 0,0" style="fill:#1a2e35;fill-opacity:1;fill-rule:nonzero;stroke:none" id="path1062"/></g><path d="M 113.95,218.01 H 40.624 v 73.325 h 73.326 z" style="fill:#fff;fill-opacity:1;fill-rule:nonzero;stroke:none" id="path1064" clip-path="url(#clipPath7759)"/><g id="g1066" clip-path="url(#clipPath7753)" transform="translate(144.7135,189.1569)"><path d="m 0,0 c 0,-7.59 -6.154,-13.744 -13.745,-13.744 -7.59,0 -13.744,6.154 -13.744,13.744 0,7.591 6.154,13.745 13.744,13.745 C -6.154,13.745 0,7.591 0,0" style="fill:#e1e1e1;fill-opacity:1;fill-rule:nonzero;stroke:none" id="path1068"/></g><g id="g1070" clip-path="url(#clipPath7747)" transform="translate(144.3263,194.6628)"><path d="m 0,0 c 0,-6.636 -5.379,-12.015 -12.016,-12.015 -6.635,0 -12.014,5.379 -12.014,12.015 0,6.636 5.379,12.016 12.014,12.016 C -5.379,12.016 0,6.636 0,0" style="fill:#fafafa;fill-opacity:1;fill-rule:nonzero;stroke:none" id="path1072"/></g><g id="g1074" clip-path="url(#clipPath7741)" transform="translate(143.8956,194.6628)"><path d="m 0,0 c 0,-6.397 -5.187,-11.585 -11.585,-11.585 -6.398,0 -11.584,5.188 -11.584,11.585 0,6.398 5.186,11.585 11.584,11.585 C -5.187,11.585 0,6.398 0,0" style="fill:#ff4f5b;fill-opacity:1;fill-rule:nonzero;stroke:none" id="path1076"/></g><g id="g1078" clip-path="url(#clipPath7735)" transform="translate(132.3112,203.4841)" style="fill:red"><path d="m 0,0 c -4.865,0 -8.822,-3.957 -8.822,-8.821 0,-4.865 3.957,-8.822 8.822,-8.822 4.864,0 8.822,3.957 8.822,8.822 C 8.822,-3.957 4.864,0 0,0 m 0,-17.693 c -4.892,0 -8.872,3.98 -8.872,8.872 0,4.891 3.98,8.872 8.872,8.872 4.892,0 8.872,-3.981 8.872,-8.872 0,-4.892 -3.98,-8.872 -8.872,-8.872" style="fill:red;fill-opacity:1;fill-rule:nonzero;stroke:none" id="path1080"/></g><g id="g1082" clip-path="url(#clipPath7729)" style="fill:#fff;fill-opacity:1"><g id="g1096" style="fill:#fff;fill-opacity:1"><g id="g1094" clip-path="url(#clipPath1088)" opacity=".2" style="fill:#fff;fill-opacity:1"><g id="g1092" transform="translate(133.2536,202.7595)" style="fill:#fff;fill-opacity:1"><path d="m 0,0 c -2.254,0.531 -4.789,-0.462 -6.08,-2.385 -1.292,-1.923 -1.254,-4.644 0.09,-6.53 1.344,-1.886 3.906,-2.81 6.144,-2.216 2.239,0.594 4.005,2.665 4.238,4.97 0.119,1.18 -0.145,2.408 -0.81,3.39 C 2.57,-1.277 1.763,-0.389 0,0" style="fill:#fff;fill-opacity:1;fill-rule:nonzero;stroke:none" id="path1090"/></g></g></g></g><g id="g1098" clip-path="url(#clipPath7723)" transform="translate(130.1413,187.1843)"><path d="M 0,0 0.657,-0.902 4.19,-0.792 4.869,0 Z" style="fill:#1a2e35;fill-opacity:1;fill-rule:nonzero;stroke:none" id="path1100"/></g><g id="g1102" clip-path="url(#clipPath7717)" transform="translate(374.0543,187.5466)"><path d="m 0,0 c 0,-4.052 -3.284,-7.336 -7.336,-7.336 -4.051,0 -7.335,3.284 -7.335,7.336 0,4.051 3.284,7.335 7.335,7.335 C -3.284,7.335 0,4.051 0,0" style="fill:#1a2e35;fill-opacity:1;fill-rule:nonzero;stroke:none" id="path1104"/></g><g id="g1106" clip-path="url(#clipPath7711)" transform="translate(369.399,187.5466)" style="fill:red;fill-opacity:1"><path d="m 0,0 c 0,-1.48 -1.2,-2.681 -2.681,-2.681 -1.479,0 -2.679,1.201 -2.679,2.681 0,1.479 1.2,2.68 2.679,2.68 C -1.2,2.68 0,1.479 0,0" style="fill:red;fill-opacity:1;fill-rule:nonzero;stroke:none" id="path1108"/></g><g id="g1110" clip-path="url(#clipPath7705)" transform="translate(98.025,207.655)"><path d="M 0,0 C 0,0.137 0.636,0.247 1.42,0.247 2.205,0.247 2.841,0.137 2.841,0 2.841,-0.136 2.205,-0.246 1.42,-0.246 0.636,-0.246 0,-0.136 0,0" style="fill:#1a2e35;fill-opacity:1;fill-rule:nonzero;stroke:none" id="path1112"/></g><g id="g1114" clip-path="url(#clipPath7699)" transform="translate(92.3434,207.655)"><path d="M 0,0 C 0,0.137 0.636,0.247 1.42,0.247 2.205,0.247 2.841,0.137 2.841,0 2.841,-0.136 2.205,-0.246 1.42,-0.246 0.636,-0.246 0,-0.136 0,0" style="fill:#1a2e35;fill-opacity:1;fill-rule:nonzero;stroke:none" id="path1116"/></g><g id="g1118" clip-path="url(#clipPath7693)" transform="translate(86.6613,207.655)"><path d="M 0,0 C 0,0.137 0.636,0.247 1.42,0.247 2.205,0.247 2.841,0.137 2.841,0 2.841,-0.136 2.205,-0.246 1.42,-0.246 0.636,-0.246 0,-0.136 0,0" style="fill:#1a2e35;fill-opacity:1;fill-rule:nonzero;stroke:none" id="path1120"/></g><g id="g1122" clip-path="url(#clipPath7687)" transform="translate(80.9796,207.655)"><path d="M 0,0 C 0,0.137 0.636,0.247 1.42,0.247 2.205,0.247 2.841,0.137 2.841,0 2.841,-0.136 2.205,-0.246 1.42,-0.246 0.636,-0.246 0,-0.136 0,0" style="fill:#1a2e35;fill-opacity:1;fill-rule:nonzero;stroke:none" id="path1124"/></g><g id="g1126" clip-path="url(#clipPath7681)" transform="translate(75.298,207.655)"><path d="M 0,0 C 0,0.137 0.636,0.247 1.42,0.247 2.205,0.247 2.841,0.137 2.841,0 2.841,-0.136 2.205,-0.246 1.42,-0.246 0.636,-0.246 0,-0.136 0,0" style="fill:#1a2e35;fill-opacity:1;fill-rule:nonzero;stroke:none" id="path1128"/></g><g id="g1130" clip-path="url(#clipPath7675)" transform="translate(69.6163,207.655)"><path d="M 0,0 C 0,0.137 0.636,0.247 1.42,0.247 2.205,0.247 2.841,0.137 2.841,0 2.841,-0.136 2.205,-0.246 1.42,-0.246 0.636,-0.246 0,-0.136 0,0" style="fill:#1a2e35;fill-opacity:1;fill-rule:nonzero;stroke:none" id="path1132"/></g><g id="g1134" clip-path="url(#clipPath7669)" transform="translate(63.9347,207.655)"><path d="M 0,0 C 0,0.137 0.636,0.247 1.42,0.247 2.205,0.247 2.841,0.137 2.841,0 2.841,-0.136 2.205,-0.246 1.42,-0.246 0.636,-0.246 0,-0.136 0,0" style="fill:#1a2e35;fill-opacity:1;fill-rule:nonzero;stroke:none" id="path1136"/></g><g id="g1138" clip-path="url(#clipPath7663)" transform="translate(58.2526,207.655)"><path d="M 0,0 C 0,0.137 0.636,0.247 1.42,0.247 2.205,0.247 2.841,0.137 2.841,0 2.841,-0.136 2.205,-0.246 1.42,-0.246 0.636,-0.246 0,-0.136 0,0" style="fill:#1a2e35;fill-opacity:1;fill-rule:nonzero;stroke:none" id="path1140"/></g><g id="g1142" clip-path="url(#clipPath7657)" transform="translate(52.5709,207.655)"><path d="M 0,0 C 0,0.137 0.636,0.247 1.42,0.247 2.205,0.247 2.841,0.137 2.841,0 2.841,-0.136 2.205,-0.246 1.42,-0.246 0.636,-0.246 0,-0.136 0,0" style="fill:#1a2e35;fill-opacity:1;fill-rule:nonzero;stroke:none" id="path1144"/></g><g id="g1146" clip-path="url(#clipPath7651)" transform="translate(46.8893,207.655)"><path d="M 0,0 C 0,0.137 0.636,0.247 1.42,0.247 2.205,0.247 2.841,0.137 2.841,0 2.841,-0.136 2.205,-0.246 1.42,-0.246 0.636,-0.246 0,-0.136 0,0" style="fill:#1a2e35;fill-opacity:1;fill-rule:nonzero;stroke:none" id="path1148"/></g><g id="g1150" clip-path="url(#clipPath7645)" transform="translate(41.2077,207.655)"><path d="M 0,0 C 0,0.137 0.636,0.247 1.42,0.247 2.205,0.247 2.841,0.137 2.841,0 2.841,-0.136 2.205,-0.246 1.42,-0.246 0.636,-0.246 0,-0.136 0,0" style="fill:#1a2e35;fill-opacity:1;fill-rule:nonzero;stroke:none" id="path1152"/></g><g id="g1154" clip-path="url(#clipPath7639)" transform="translate(35.526,207.655)"><path d="M 0,0 C 0,0.137 0.636,0.247 1.42,0.247 2.205,0.247 2.841,0.137 2.841,0 2.841,-0.136 2.205,-0.246 1.42,-0.246 0.636,-0.246 0,-0.136 0,0" style="fill:#1a2e35;fill-opacity:1;fill-rule:nonzero;stroke:none" id="path1156"/></g><g id="g1158" clip-path="url(#clipPath7633)" transform="translate(31.4772,209.2888)"><path d="M 0,0 C 0.136,0 0.247,-0.636 0.247,-1.421 0.246,-1.491 0.245,-1.559 0.244,-1.633 L 0,-1.39 C 0.685,-1.407 1.208,-1.51 1.208,-1.634 1.208,-1.757 0.685,-1.859 0,-1.877 l -0.24,-0.007 -0.004,0.251 c -0.001,0.074 -0.002,0.142 -0.003,0.212 C -0.247,-0.636 -0.136,0 0,0" style="fill:#1a2e35;fill-opacity:1;fill-rule:nonzero;stroke:none" id="path1160"/></g><g id="g1162" clip-path="url(#clipPath7627)" transform="translate(31.4772,214.9704)"><path d="m 0,0 c 0.136,0 0.247,-0.636 0.247,-1.42 0,-0.785 -0.111,-1.421 -0.247,-1.421 -0.136,0 -0.247,0.636 -0.247,1.421 C -0.247,-0.636 -0.136,0 0,0" style="fill:#1a2e35;fill-opacity:1;fill-rule:nonzero;stroke:none" id="path1164"/></g><g id="g1166" clip-path="url(#clipPath7621)" transform="translate(31.4772,220.652)"><path d="m 0,0 c 0.136,0 0.247,-0.636 0.247,-1.42 0,-0.785 -0.111,-1.421 -0.247,-1.421 -0.136,0 -0.247,0.636 -0.247,1.421 C -0.247,-0.636 -0.136,0 0,0" style="fill:#1a2e35;fill-opacity:1;fill-rule:nonzero;stroke:none" id="path1168"/></g><g id="g1170" clip-path="url(#clipPath7615)" transform="translate(31.4772,226.3337)"><path d="m 0,0 c 0.136,0 0.247,-0.636 0.247,-1.42 0,-0.785 -0.111,-1.421 -0.247,-1.421 -0.136,0 -0.247,0.636 -0.247,1.421 C -0.247,-0.636 -0.136,0 0,0" style="fill:#1a2e35;fill-opacity:1;fill-rule:nonzero;stroke:none" id="path1172"/></g><g id="g1174" clip-path="url(#clipPath7609)" transform="translate(31.4772,232.0153)"><path d="m 0,0 c 0.136,0 0.247,-0.636 0.247,-1.42 0,-0.785 -0.111,-1.421 -0.247,-1.421 -0.136,0 -0.247,0.636 -0.247,1.421 C -0.247,-0.636 -0.136,0 0,0" style="fill:#1a2e35;fill-opacity:1;fill-rule:nonzero;stroke:none" id="path1176"/></g><g id="g1178" clip-path="url(#clipPath7603)" transform="translate(31.4772,237.697)"><path d="m 0,0 c 0.136,0 0.247,-0.636 0.247,-1.42 0,-0.785 -0.111,-1.421 -0.247,-1.421 -0.136,0 -0.247,0.636 -0.247,1.421 C -0.247,-0.636 -0.136,0 0,0" style="fill:#1a2e35;fill-opacity:1;fill-rule:nonzero;stroke:none" id="path1180"/></g><g id="g1182" clip-path="url(#clipPath7597)" transform="translate(31.4772,243.3786)"><path d="m 0,0 c 0.136,0 0.247,-0.636 0.247,-1.42 0,-0.785 -0.111,-1.421 -0.247,-1.421 -0.136,0 -0.247,0.636 -0.247,1.421 C -0.247,-0.636 -0.136,0 0,0" style="fill:#1a2e35;fill-opacity:1;fill-rule:nonzero;stroke:none" id="path1184"/></g><g id="g1186" clip-path="url(#clipPath7591)" transform="translate(31.4772,249.0607)"><path d="m 0,0 c 0.136,0 0.247,-0.636 0.247,-1.42 0,-0.785 -0.111,-1.421 -0.247,-1.421 -0.136,0 -0.247,0.636 -0.247,1.421 C -0.247,-0.636 -0.136,0 0,0" style="fill:#1a2e35;fill-opacity:1;fill-rule:nonzero;stroke:none" id="path1188"/></g><g id="g1190" clip-path="url(#clipPath7585)" transform="translate(31.4772,254.7424)"><path d="m 0,0 c 0.136,0 0.247,-0.636 0.247,-1.42 0,-0.785 -0.111,-1.421 -0.247,-1.421 -0.136,0 -0.247,0.636 -0.247,1.421 C -0.247,-0.636 -0.136,0 0,0" style="fill:#1a2e35;fill-opacity:1;fill-rule:nonzero;stroke:none" id="path1192"/></g><g id="g1194" clip-path="url(#clipPath7579)" transform="translate(31.4772,260.424)"><path d="m 0,0 c 0.136,0 0.247,-0.636 0.247,-1.42 0,-0.785 -0.111,-1.421 -0.247,-1.421 -0.136,0 -0.247,0.636 -0.247,1.421 C -0.247,-0.636 -0.136,0 0,0" style="fill:#1a2e35;fill-opacity:1;fill-rule:nonzero;stroke:none" id="path1196"/></g><g id="g1198" clip-path="url(#clipPath7573)" transform="translate(31.4772,266.1061)"><path d="m 0,0 c 0.136,0 0.247,-0.636 0.247,-1.42 0,-0.785 -0.111,-1.421 -0.247,-1.421 -0.136,0 -0.247,0.636 -0.247,1.421 C -0.247,-0.636 -0.136,0 0,0" style="fill:#1a2e35;fill-opacity:1;fill-rule:nonzero;stroke:none" id="path1200"/></g><g id="g1202" clip-path="url(#clipPath7567)" transform="translate(31.4772,271.7878)"><path d="m 0,0 c 0.136,0 0.247,-0.636 0.247,-1.42 0,-0.785 -0.111,-1.421 -0.247,-1.421 -0.136,0 -0.247,0.636 -0.247,1.421 C -0.247,-0.636 -0.136,0 0,0" style="fill:#1a2e35;fill-opacity:1;fill-rule:nonzero;stroke:none" id="path1204"/></g><g id="g1206" clip-path="url(#clipPath7561)" transform="translate(31.9025,277.0441)"><path d="M 0,0 C 0,-0.069 -0.162,-0.131 -0.425,-0.176 L -0.25,0 c 0.044,-0.256 0.071,-0.607 0.071,-0.995 0,-0.785 -0.11,-1.421 -0.246,-1.421 -0.137,0 -0.247,0.636 -0.247,1.421 0,0.388 0.027,0.739 0.071,0.995 l 0.034,0.2 0.142,-0.024 C -0.162,0.131 0,0.069 0,0" style="fill:#1a2e35;fill-opacity:1;fill-rule:nonzero;stroke:none" id="path1208"/></g><g id="g1210" clip-path="url(#clipPath7555)" transform="translate(37.5846,277.0441)"><path d="m 0,0 c 0,-0.136 -0.636,-0.247 -1.42,-0.247 -0.785,0 -1.421,0.111 -1.421,0.247 0,0.136 0.636,0.247 1.421,0.247 C -0.636,0.247 0,0.136 0,0" style="fill:#1a2e35;fill-opacity:1;fill-rule:nonzero;stroke:none" id="path1212"/></g><g id="g1214" clip-path="url(#clipPath7549)" transform="translate(43.2663,277.0441)"><path d="m 0,0 c 0,-0.136 -0.636,-0.247 -1.42,-0.247 -0.785,0 -1.421,0.111 -1.421,0.247 0,0.136 0.636,0.247 1.421,0.247 C -0.636,0.247 0,0.136 0,0" style="fill:#1a2e35;fill-opacity:1;fill-rule:nonzero;stroke:none" id="path1216"/></g><g id="g1218" clip-path="url(#clipPath7543)" transform="translate(48.9479,277.0441)"><path d="m 0,0 c 0,-0.136 -0.636,-0.247 -1.42,-0.247 -0.785,0 -1.421,0.111 -1.421,0.247 0,0.136 0.636,0.247 1.421,0.247 C -0.636,0.247 0,0.136 0,0" style="fill:#1a2e35;fill-opacity:1;fill-rule:nonzero;stroke:none" id="path1220"/></g><g id="g1222" clip-path="url(#clipPath7537)" transform="translate(54.6295,277.0441)"><path d="m 0,0 c 0,-0.136 -0.636,-0.247 -1.42,-0.247 -0.785,0 -1.421,0.111 -1.421,0.247 0,0.136 0.636,0.247 1.421,0.247 C -0.636,0.247 0,0.136 0,0" style="fill:#1a2e35;fill-opacity:1;fill-rule:nonzero;stroke:none" id="path1224"/></g><g id="g1226" clip-path="url(#clipPath7531)" transform="translate(60.3112,277.0441)"><path d="m 0,0 c 0,-0.136 -0.636,-0.247 -1.42,-0.247 -0.785,0 -1.421,0.111 -1.421,0.247 0,0.136 0.636,0.247 1.421,0.247 C -0.636,0.247 0,0.136 0,0" style="fill:#1a2e35;fill-opacity:1;fill-rule:nonzero;stroke:none" id="path1228"/></g><g id="g1230" clip-path="url(#clipPath7525)" transform="translate(65.9933,277.0441)"><path d="m 0,0 c 0,-0.136 -0.636,-0.247 -1.42,-0.247 -0.785,0 -1.421,0.111 -1.421,0.247 0,0.136 0.636,0.247 1.421,0.247 C -0.636,0.247 0,0.136 0,0" style="fill:#1a2e35;fill-opacity:1;fill-rule:nonzero;stroke:none" id="path1232"/></g><g id="g1234" clip-path="url(#clipPath7519)" transform="translate(71.6749,277.0441)"><path d="m 0,0 c 0,-0.136 -0.636,-0.247 -1.42,-0.247 -0.785,0 -1.421,0.111 -1.421,0.247 0,0.136 0.636,0.247 1.421,0.247 C -0.636,0.247 0,0.136 0,0" style="fill:#1a2e35;fill-opacity:1;fill-rule:nonzero;stroke:none" id="path1236"/></g><g id="g1238" clip-path="url(#clipPath7513)" transform="translate(77.3566,277.0441)"><path d="m 0,0 c 0,-0.136 -0.636,-0.247 -1.42,-0.247 -0.785,0 -1.421,0.111 -1.421,0.247 0,0.136 0.636,0.247 1.421,0.247 C -0.636,0.247 0,0.136 0,0" style="fill:#1a2e35;fill-opacity:1;fill-rule:nonzero;stroke:none" id="path1240"/></g><g id="g1242" clip-path="url(#clipPath7507)" transform="translate(83.0382,277.0441)"><path d="m 0,0 c 0,-0.136 -0.636,-0.247 -1.42,-0.247 -0.785,0 -1.421,0.111 -1.421,0.247 0,0.136 0.636,0.247 1.421,0.247 C -0.636,0.247 0,0.136 0,0" style="fill:#1a2e35;fill-opacity:1;fill-rule:nonzero;stroke:none" id="path1244"/></g><g id="g1246" clip-path="url(#clipPath7501)" transform="translate(88.7199,277.0441)"><path d="m 0,0 c 0,-0.136 -0.636,-0.247 -1.42,-0.247 -0.785,0 -1.421,0.111 -1.421,0.247 0,0.136 0.636,0.247 1.421,0.247 C -0.636,0.247 0,0.136 0,0" style="fill:#1a2e35;fill-opacity:1;fill-rule:nonzero;stroke:none" id="path1248"/></g><g id="g1250" clip-path="url(#clipPath7495)" transform="translate(94.402,277.0441)"><path d="m 0,0 c 0,-0.136 -0.636,-0.247 -1.42,-0.247 -0.785,0 -1.421,0.111 -1.421,0.247 0,0.136 0.636,0.247 1.421,0.247 C -0.636,0.247 0,0.136 0,0" style="fill:#1a2e35;fill-opacity:1;fill-rule:nonzero;stroke:none" id="path1252"/></g><g id="g1254" clip-path="url(#clipPath7489)" transform="translate(100.0836,277.0441)"><path d="m 0,0 c 0,-0.136 -0.636,-0.247 -1.42,-0.247 -0.785,0 -1.421,0.111 -1.421,0.247 0,0.136 0.636,0.247 1.421,0.247 C -0.636,0.247 0,0.136 0,0" style="fill:#1a2e35;fill-opacity:1;fill-rule:nonzero;stroke:none" id="path1256"/></g><g id="g1258" clip-path="url(#clipPath7483)" transform="translate(100.8659,272.1442)"><path d="m 0,0 c -0.136,0 -0.247,0.636 -0.247,1.42 0,0.785 0.111,1.421 0.247,1.421 0.136,0 0.247,-0.636 0.247,-1.421 C 0.247,0.636 0.136,0 0,0" style="fill:#1a2e35;fill-opacity:1;fill-rule:nonzero;stroke:none" id="path1260"/></g><g id="g1262" clip-path="url(#clipPath7477)" transform="translate(100.8659,266.4626)"><path d="m 0,0 c -0.136,0 -0.247,0.636 -0.247,1.42 0,0.785 0.111,1.421 0.247,1.421 0.136,0 0.247,-0.636 0.247,-1.421 C 0.247,0.636 0.136,0 0,0" style="fill:#1a2e35;fill-opacity:1;fill-rule:nonzero;stroke:none" id="path1264"/></g><g id="g1266" clip-path="url(#clipPath7471)" transform="translate(100.8659,260.7809)"><path d="m 0,0 c -0.136,0 -0.247,0.636 -0.247,1.42 0,0.785 0.111,1.421 0.247,1.421 0.136,0 0.247,-0.636 0.247,-1.421 C 0.247,0.636 0.136,0 0,0" style="fill:#1a2e35;fill-opacity:1;fill-rule:nonzero;stroke:none" id="path1268"/></g><g id="g1270" clip-path="url(#clipPath7465)" transform="translate(100.8659,255.0993)"><path d="m 0,0 c -0.136,0 -0.247,0.636 -0.247,1.42 0,0.785 0.111,1.421 0.247,1.421 0.136,0 0.247,-0.636 0.247,-1.421 C 0.247,0.636 0.136,0 0,0" style="fill:#1a2e35;fill-opacity:1;fill-rule:nonzero;stroke:none" id="path1272"/></g><g id="g1274" clip-path="url(#clipPath7459)" transform="translate(100.8659,249.4172)"><path d="m 0,0 c -0.136,0 -0.247,0.636 -0.247,1.42 0,0.785 0.111,1.421 0.247,1.421 0.136,0 0.247,-0.636 0.247,-1.421 C 0.247,0.636 0.136,0 0,0" style="fill:#1a2e35;fill-opacity:1;fill-rule:nonzero;stroke:none" id="path1276"/></g><g id="g1278" clip-path="url(#clipPath7453)" transform="translate(100.8659,243.736)"><path d="m 0,0 c -0.136,0 -0.247,0.636 -0.247,1.42 0,0.785 0.111,1.421 0.247,1.421 0.136,0 0.247,-0.636 0.247,-1.421 C 0.247,0.636 0.136,0 0,0" style="fill:#1a2e35;fill-opacity:1;fill-rule:nonzero;stroke:none" id="path1280"/></g><g id="g1282" clip-path="url(#clipPath7447)" transform="translate(100.8659,238.0544)"><path d="m 0,0 c -0.136,0 -0.247,0.636 -0.247,1.42 0,0.785 0.111,1.421 0.247,1.421 0.136,0 0.247,-0.636 0.247,-1.421 C 0.247,0.636 0.136,0 0,0" style="fill:#1a2e35;fill-opacity:1;fill-rule:nonzero;stroke:none" id="path1284"/></g><g id="g1286" clip-path="url(#clipPath7441)" transform="translate(100.8659,232.3718)"><path d="m 0,0 c -0.136,0 -0.247,0.637 -0.247,1.421 0,0.784 0.111,1.421 0.247,1.421 0.136,0 0.247,-0.637 0.247,-1.421 C 0.247,0.637 0.136,0 0,0" style="fill:#1a2e35;fill-opacity:1;fill-rule:nonzero;stroke:none" id="path1288"/></g><g id="g1290" clip-path="url(#clipPath7435)" transform="translate(100.8659,226.6901)"><path d="m 0,0 c -0.136,0 -0.247,0.637 -0.247,1.421 0,0.784 0.111,1.42 0.247,1.42 0.136,0 0.247,-0.636 0.247,-1.42 C 0.247,0.637 0.136,0 0,0" style="fill:#1a2e35;fill-opacity:1;fill-rule:nonzero;stroke:none" id="path1292"/></g><g id="g1294" clip-path="url(#clipPath7429)" transform="translate(100.8659,221.0085)"><path d="m 0,0 c -0.136,0 -0.247,0.636 -0.247,1.421 0,0.784 0.111,1.42 0.247,1.42 0.136,0 0.247,-0.636 0.247,-1.42 C 0.247,0.636 0.136,0 0,0" style="fill:#1a2e35;fill-opacity:1;fill-rule:nonzero;stroke:none" id="path1296"/></g><g id="g1298" clip-path="url(#clipPath7423)" transform="translate(100.8659,215.3268)"><path d="m 0,0 c -0.136,0 -0.247,0.636 -0.247,1.421 0,0.784 0.111,1.42 0.247,1.42 0.136,0 0.247,-0.636 0.247,-1.42 C 0.247,0.636 0.136,0 0,0" style="fill:#1a2e35;fill-opacity:1;fill-rule:nonzero;stroke:none" id="path1300"/></g><g id="g1302" clip-path="url(#clipPath7417)" transform="translate(100.8659,209.6452)"><path d="m 0,0 c -0.136,0 -0.247,0.636 -0.247,1.42 0,0.785 0.111,1.421 0.247,1.421 0.136,0 0.247,-0.636 0.247,-1.421 C 0.247,0.636 0.136,0 0,0" style="fill:#1a2e35;fill-opacity:1;fill-rule:nonzero;stroke:none" id="path1304"/></g><path d="m 103.435,205.789 h -5.139 v 5.14 h 5.139 z" style="fill:#1a2e35;fill-opacity:1;fill-rule:nonzero;stroke:none" id="path1306" clip-path="url(#clipPath7411)"/><path d="m 34.047,205.086 h -5.139 v 5.14 h 5.139 z" style="fill:#1a2e35;fill-opacity:1;fill-rule:nonzero;stroke:none" id="path1308" clip-path="url(#clipPath7405)"/><path d="m 103.435,274.975 h -5.139 v 5.139 h 5.139 z" style="fill:#1a2e35;fill-opacity:1;fill-rule:nonzero;stroke:none" id="path1310" clip-path="url(#clipPath7399)"/><path d="m 34.047,274.474 h -5.139 v 5.139 h 5.139 z" style="fill:#1a2e35;fill-opacity:1;fill-rule:nonzero;stroke:none" id="path1312" clip-path="url(#clipPath7393)"/></g></svg>